<svg xmlns="http://www.w3.org/2000/svg" width="91" height="91" viewBox="0 0 91 91">
  <g id="Icon_Button" data-name="Icon Button" transform="translate(-510 -1587)">
    <g id="Icon" transform="translate(510 1587)" fill="#fff" stroke="rgba(34,66,122,0.8)" stroke-width="2">
      <circle cx="45.5" cy="45.5" r="45.5" stroke="none"/>
      <circle cx="45.5" cy="45.5" r="44.5" fill="none"/>
    </g>
    <g id="S_P_Icons_2023_AS_Anti_social_behaviour" data-name="S&amp;P Icons 2023_AS_Anti social behaviour" transform="translate(510.111 1588.423)">
      <path id="Path_148" data-name="Path 148" d="M64.6,55.861a9.634,9.634,0,0,1-18.09-.131" transform="translate(-10.969 -15.109)" fill="none" stroke="#1d1e32" stroke-miterlimit="10" stroke-width="2"/>
      <path id="Path_149" data-name="Path 149" d="M47.81,39.712a9.642,9.642,0,0,1,16.383-.224" transform="translate(-11.459 -7.308)" fill="none" stroke="#1d1e32" stroke-miterlimit="10" stroke-width="2"/>
      <path id="Path_150" data-name="Path 150" d="M82.888,74.431l.025-4.111,7.749-14.028a4.6,4.6,0,0,0-1.526-6.086L76.852,42.238a4.335,4.335,0,0,0-5.152.324h0a4.331,4.331,0,0,0,.436,6.939l8,5.2-4.055,5.594" transform="translate(-19.888 -9.759)" fill="none" stroke="#1d1e32" stroke-miterlimit="10" stroke-width="2"/>
      <line id="Line_72" data-name="Line 72" x2="24.469" y2="0.025" transform="translate(32.414 50.22)" fill="none" stroke="#1d1e32" stroke-miterlimit="10" stroke-width="2"/>
      <path id="Path_151" data-name="Path 151" d="M26.06,74.431l-.106-4.192L18.025,56.31a4.6,4.6,0,0,1,1.5-6.136l12.234-7.936a4.335,4.335,0,0,1,5.152.324h0A4.331,4.331,0,0,1,36.47,49.5l-8,5.2,4.641,5.544" transform="translate(0 -9.759)" fill="none" stroke="#1d1e32" stroke-miterlimit="10" stroke-width="2"/>
      <line id="Line_73" data-name="Line 73" x1="8.03" y2="4.815" transform="translate(22.043 47.81)" fill="none" stroke="#1d1e32" stroke-miterlimit="10" stroke-width="2"/>
      <line id="Line_74" data-name="Line 74" x2="8.03" y2="4.815" transform="translate(58.982 47.81)" fill="none" stroke="#1d1e32" stroke-miterlimit="10" stroke-width="2"/>
      <line id="Line_75" data-name="Line 75" y2="8.185" transform="translate(44.898 15.66)" fill="none" stroke="#1d1e32" stroke-miterlimit="10" stroke-width="2"/>
      <line id="Line_76" data-name="Line 76" x1="5.787" y2="5.787" transform="translate(52.236 19.684)" fill="none" stroke="#1d1e32" stroke-miterlimit="10" stroke-width="2"/>
      <ellipse id="Ellipse_24" data-name="Ellipse 24" cx="2.436" cy="3.115" rx="2.436" ry="3.115" transform="translate(41.291 37.002)" fill="none" stroke="#1d1e32" stroke-miterlimit="10" stroke-width="2"/>
    </g>
  </g>
</svg>
