<svg width="378" height="412" viewBox="0 0 378 412" fill="none" xmlns="http://www.w3.org/2000/svg">
<path d="M0 412V113.186L98.8016 0L378 113.186V412H0Z" fill="#886BFF"/>
<rect x="28.5" y="334.5" width="156" height="49" fill="#886BFF"/>
<rect x="28.5" y="334.5" width="156" height="49" stroke="white"/>
<path d="M58.409 353.148H61.235V363.624H67.499V366H58.409V353.148ZM75.0729 360.348C74.9529 359.7 74.7369 359.208 74.4249 358.872C74.1249 358.536 73.6629 358.368 73.0389 358.368C72.6309 358.368 72.2889 358.44 72.0129 358.584C71.7489 358.716 71.5329 358.884 71.3649 359.088C71.2089 359.292 71.0949 359.508 71.0229 359.736C70.9629 359.964 70.9269 360.168 70.9149 360.348H75.0729ZM70.9149 361.968C70.9509 362.796 71.1609 363.396 71.5449 363.768C71.9289 364.14 72.4809 364.326 73.2009 364.326C73.7169 364.326 74.1609 364.2 74.5329 363.948C74.9049 363.684 75.1329 363.408 75.2169 363.12H77.4669C77.1069 364.236 76.5549 365.034 75.8109 365.514C75.0669 365.994 74.1669 366.234 73.1109 366.234C72.3789 366.234 71.7189 366.12 71.1309 365.892C70.5429 365.652 70.0449 365.316 69.6369 364.884C69.2289 364.452 68.9109 363.936 68.6829 363.336C68.4669 362.736 68.3589 362.076 68.3589 361.356C68.3589 360.66 68.4729 360.012 68.7009 359.412C68.9289 358.812 69.2529 358.296 69.6729 357.864C70.0929 357.42 70.5909 357.072 71.1669 356.82C71.7549 356.568 72.4029 356.442 73.1109 356.442C73.9029 356.442 74.5929 356.598 75.1809 356.91C75.7689 357.21 76.2489 357.618 76.6209 358.134C77.0049 358.65 77.2809 359.238 77.4489 359.898C77.6169 360.558 77.6769 361.248 77.6289 361.968H70.9149ZM79.0369 359.556C79.0729 358.956 79.2229 358.458 79.4869 358.062C79.7509 357.666 80.0869 357.348 80.4949 357.108C80.9029 356.868 81.3589 356.7 81.8629 356.604C82.3789 356.496 82.8949 356.442 83.4109 356.442C83.8789 356.442 84.3529 356.478 84.8329 356.55C85.3129 356.61 85.7509 356.736 86.1469 356.928C86.5429 357.12 86.8669 357.39 87.1189 357.738C87.3709 358.074 87.4969 358.524 87.4969 359.088V363.93C87.4969 364.35 87.5209 364.752 87.5689 365.136C87.6169 365.52 87.7009 365.808 87.8209 366H85.2289C85.1809 365.856 85.1389 365.712 85.1029 365.568C85.0789 365.412 85.0609 365.256 85.0489 365.1C84.6409 365.52 84.1609 365.814 83.6089 365.982C83.0569 366.15 82.4929 366.234 81.9169 366.234C81.4729 366.234 81.0589 366.18 80.6749 366.072C80.2909 365.964 79.9549 365.796 79.6669 365.568C79.3789 365.34 79.1509 365.052 78.9829 364.704C78.8269 364.356 78.7489 363.942 78.7489 363.462C78.7489 362.934 78.8389 362.502 79.0189 362.166C79.2109 361.818 79.4509 361.542 79.7389 361.338C80.0389 361.134 80.3749 360.984 80.7469 360.888C81.1309 360.78 81.5149 360.696 81.8989 360.636C82.2829 360.576 82.6609 360.528 83.0329 360.492C83.4049 360.456 83.7349 360.402 84.0229 360.33C84.3109 360.258 84.5389 360.156 84.7069 360.024C84.8749 359.88 84.9529 359.676 84.9409 359.412C84.9409 359.136 84.8929 358.92 84.7969 358.764C84.7129 358.596 84.5929 358.47 84.4369 358.386C84.2929 358.29 84.1189 358.23 83.9149 358.206C83.7229 358.17 83.5129 358.152 83.2849 358.152C82.7809 358.152 82.3849 358.26 82.0969 358.476C81.8089 358.692 81.6409 359.052 81.5929 359.556H79.0369ZM84.9409 361.446C84.8329 361.542 84.6949 361.62 84.5269 361.68C84.3709 361.728 84.1969 361.77 84.0049 361.806C83.8249 361.842 83.6329 361.872 83.4289 361.896C83.2249 361.92 83.0209 361.95 82.8169 361.986C82.6249 362.022 82.4329 362.07 82.2409 362.13C82.0609 362.19 81.8989 362.274 81.7549 362.382C81.6229 362.478 81.5149 362.604 81.4309 362.76C81.3469 362.916 81.3049 363.114 81.3049 363.354C81.3049 363.582 81.3469 363.774 81.4309 363.93C81.5149 364.086 81.6289 364.212 81.7729 364.308C81.9169 364.392 82.0849 364.452 82.2769 364.488C82.4689 364.524 82.6669 364.542 82.8709 364.542C83.3749 364.542 83.7649 364.458 84.0409 364.29C84.3169 364.122 84.5209 363.924 84.6529 363.696C84.7849 363.456 84.8629 363.216 84.8869 362.976C84.9229 362.736 84.9409 362.544 84.9409 362.4V361.446ZM89.4808 356.694H91.9108V358.422H91.9468C92.0668 358.134 92.2288 357.87 92.4328 357.63C92.6368 357.378 92.8708 357.168 93.1348 357C93.3988 356.82 93.6808 356.682 93.9808 356.586C94.2808 356.49 94.5928 356.442 94.9168 356.442C95.0848 356.442 95.2708 356.472 95.4748 356.532V358.908C95.3548 358.884 95.2108 358.866 95.0428 358.854C94.8748 358.83 94.7128 358.818 94.5568 358.818C94.0888 358.818 93.6928 358.896 93.3688 359.052C93.0448 359.208 92.7808 359.424 92.5768 359.7C92.3848 359.964 92.2468 360.276 92.1628 360.636C92.0788 360.996 92.0368 361.386 92.0368 361.806V366H89.4808V356.694ZM96.7933 356.694H99.2233V357.99H99.2773C99.6013 357.45 100.021 357.06 100.537 356.82C101.053 356.568 101.581 356.442 102.121 356.442C102.805 356.442 103.363 356.538 103.795 356.73C104.239 356.91 104.587 357.168 104.839 357.504C105.091 357.828 105.265 358.23 105.361 358.71C105.469 359.178 105.523 359.7 105.523 360.276V366H102.967V360.744C102.967 359.976 102.847 359.406 102.607 359.034C102.367 358.65 101.941 358.458 101.329 358.458C100.633 358.458 100.129 358.668 99.8173 359.088C99.5053 359.496 99.3493 360.174 99.3493 361.122V366H96.7933V356.694ZM112.545 356.694H114.957V357.954H114.993C115.329 357.474 115.731 357.102 116.199 356.838C116.679 356.574 117.225 356.442 117.837 356.442C118.425 356.442 118.959 356.556 119.439 356.784C119.931 357.012 120.303 357.414 120.555 357.99C120.831 357.582 121.203 357.222 121.671 356.91C122.151 356.598 122.715 356.442 123.363 356.442C123.855 356.442 124.311 356.502 124.731 356.622C125.151 356.742 125.511 356.934 125.811 357.198C126.111 357.462 126.345 357.81 126.513 358.242C126.681 358.662 126.765 359.172 126.765 359.772V366H124.209V360.726C124.209 360.414 124.197 360.12 124.173 359.844C124.149 359.568 124.083 359.328 123.975 359.124C123.867 358.92 123.705 358.758 123.489 358.638C123.285 358.518 123.003 358.458 122.643 358.458C122.283 358.458 121.989 358.53 121.761 358.674C121.545 358.806 121.371 358.986 121.239 359.214C121.119 359.43 121.035 359.682 120.987 359.97C120.951 360.246 120.933 360.528 120.933 360.816V366H118.377V360.78C118.377 360.504 118.371 360.234 118.359 359.97C118.347 359.694 118.293 359.442 118.197 359.214C118.113 358.986 117.963 358.806 117.747 358.674C117.543 358.53 117.237 358.458 116.829 358.458C116.709 358.458 116.547 358.488 116.343 358.548C116.151 358.596 115.959 358.698 115.767 358.854C115.587 358.998 115.431 359.214 115.299 359.502C115.167 359.778 115.101 360.144 115.101 360.6V366H112.545V356.694ZM131.053 361.356C131.053 361.728 131.089 362.094 131.161 362.454C131.233 362.802 131.353 363.12 131.521 363.408C131.701 363.684 131.935 363.906 132.223 364.074C132.511 364.242 132.871 364.326 133.303 364.326C133.735 364.326 134.095 364.242 134.383 364.074C134.683 363.906 134.917 363.684 135.085 363.408C135.265 363.12 135.391 362.802 135.463 362.454C135.535 362.094 135.571 361.728 135.571 361.356C135.571 360.984 135.535 360.618 135.463 360.258C135.391 359.898 135.265 359.58 135.085 359.304C134.917 359.028 134.683 358.806 134.383 358.638C134.095 358.458 133.735 358.368 133.303 358.368C132.871 358.368 132.511 358.458 132.223 358.638C131.935 358.806 131.701 359.028 131.521 359.304C131.353 359.58 131.233 359.898 131.161 360.258C131.089 360.618 131.053 360.984 131.053 361.356ZM128.497 361.356C128.497 360.612 128.611 359.94 128.839 359.34C129.067 358.728 129.391 358.212 129.811 357.792C130.231 357.36 130.735 357.03 131.323 356.802C131.911 356.562 132.571 356.442 133.303 356.442C134.035 356.442 134.695 356.562 135.283 356.802C135.883 357.03 136.393 357.36 136.813 357.792C137.233 358.212 137.557 358.728 137.785 359.34C138.013 359.94 138.127 360.612 138.127 361.356C138.127 362.1 138.013 362.772 137.785 363.372C137.557 363.972 137.233 364.488 136.813 364.92C136.393 365.34 135.883 365.664 135.283 365.892C134.695 366.12 134.035 366.234 133.303 366.234C132.571 366.234 131.911 366.12 131.323 365.892C130.735 365.664 130.231 365.34 129.811 364.92C129.391 364.488 129.067 363.972 128.839 363.372C128.611 362.772 128.497 362.1 128.497 361.356ZM139.789 356.694H142.219V358.422H142.255C142.375 358.134 142.537 357.87 142.741 357.63C142.945 357.378 143.179 357.168 143.443 357C143.707 356.82 143.989 356.682 144.289 356.586C144.589 356.49 144.901 356.442 145.225 356.442C145.393 356.442 145.579 356.472 145.783 356.532V358.908C145.663 358.884 145.519 358.866 145.351 358.854C145.183 358.83 145.021 358.818 144.865 358.818C144.397 358.818 144.001 358.896 143.677 359.052C143.353 359.208 143.089 359.424 142.885 359.7C142.693 359.964 142.555 360.276 142.471 360.636C142.387 360.996 142.345 361.386 142.345 361.806V366H139.789V356.694ZM152.733 360.348C152.613 359.7 152.397 359.208 152.085 358.872C151.785 358.536 151.323 358.368 150.699 358.368C150.291 358.368 149.949 358.44 149.673 358.584C149.409 358.716 149.193 358.884 149.025 359.088C148.869 359.292 148.755 359.508 148.683 359.736C148.623 359.964 148.587 360.168 148.575 360.348H152.733ZM148.575 361.968C148.611 362.796 148.821 363.396 149.205 363.768C149.589 364.14 150.141 364.326 150.861 364.326C151.377 364.326 151.821 364.2 152.193 363.948C152.565 363.684 152.793 363.408 152.877 363.12H155.127C154.767 364.236 154.215 365.034 153.471 365.514C152.727 365.994 151.827 366.234 150.771 366.234C150.039 366.234 149.379 366.12 148.791 365.892C148.203 365.652 147.705 365.316 147.297 364.884C146.889 364.452 146.571 363.936 146.343 363.336C146.127 362.736 146.019 362.076 146.019 361.356C146.019 360.66 146.133 360.012 146.361 359.412C146.589 358.812 146.913 358.296 147.333 357.864C147.753 357.42 148.251 357.072 148.827 356.82C149.415 356.568 150.063 356.442 150.771 356.442C151.563 356.442 152.253 356.598 152.841 356.91C153.429 357.21 153.909 357.618 154.281 358.134C154.665 358.65 154.941 359.238 155.109 359.898C155.277 360.558 155.337 361.248 155.289 361.968H148.575Z" fill="white"/>
<path d="M26.7425 196.896H30.0827V207.69H43.3028V196.896H46.643V222H43.3028V210.503H30.0827V222H26.7425V196.896ZM64.2469 211.171C64.2001 210.468 64.036 209.799 63.7547 209.167C63.4969 208.534 63.1335 207.995 62.6647 207.549C62.2194 207.08 61.6803 206.717 61.0474 206.459C60.4379 206.178 59.7582 206.037 59.0081 206.037C58.2346 206.037 57.5314 206.178 56.8985 206.459C56.2891 206.717 55.7617 207.08 55.3163 207.549C54.8709 208.018 54.5193 208.569 54.2615 209.202C54.0037 209.811 53.8513 210.468 53.8044 211.171H64.2469ZM67.1301 216.234C66.7316 218.273 65.8526 219.808 64.4931 220.84C63.1335 221.871 61.4224 222.387 59.3597 222.387C57.9064 222.387 56.6407 222.152 55.5624 221.684C54.5076 221.215 53.6169 220.558 52.8903 219.715C52.1636 218.871 51.6128 217.863 51.2377 216.691C50.8861 215.519 50.6869 214.241 50.64 212.858C50.64 211.475 50.851 210.21 51.2729 209.061C51.6948 207.913 52.2808 206.916 53.0309 206.073C53.8044 205.229 54.7069 204.572 55.7382 204.104C56.793 203.635 57.9416 203.4 59.1839 203.4C60.8013 203.4 62.1373 203.74 63.1921 204.42C64.2704 205.076 65.1259 205.92 65.7588 206.952C66.4151 207.983 66.8605 209.108 67.0949 210.327C67.3527 211.546 67.4582 212.706 67.4113 213.808H53.8044C53.781 214.605 53.8747 215.366 54.0857 216.093C54.2967 216.796 54.6365 217.429 55.1053 217.992C55.5741 218.531 56.1719 218.965 56.8985 219.293C57.6251 219.621 58.4807 219.785 59.4652 219.785C60.7309 219.785 61.7623 219.492 62.5593 218.906C63.3797 218.32 63.9188 217.429 64.1766 216.234H67.1301ZM86.6125 221.93C86.0969 222.234 85.3819 222.387 84.4678 222.387C83.6943 222.387 83.0731 222.176 82.6043 221.754C82.1589 221.309 81.9363 220.594 81.9363 219.609C81.1159 220.594 80.1548 221.309 79.0531 221.754C77.9749 222.176 76.8029 222.387 75.5371 222.387C74.7167 222.387 73.9315 222.293 73.1814 222.105C72.4548 221.918 71.8219 221.625 71.2828 221.226C70.7437 220.828 70.31 220.312 69.9819 219.679C69.6771 219.023 69.5248 218.238 69.5248 217.324C69.5248 216.292 69.7006 215.449 70.0522 214.792C70.4038 214.136 70.8609 213.608 71.4234 213.21C72.0094 212.788 72.6657 212.472 73.3924 212.261C74.1425 212.05 74.9043 211.874 75.6778 211.733C76.4982 211.569 77.2717 211.452 77.9983 211.382C78.7484 211.288 79.4047 211.171 79.9673 211.03C80.5299 210.866 80.9752 210.643 81.3034 210.362C81.6315 210.057 81.7956 209.624 81.7956 209.061C81.7956 208.405 81.6667 207.877 81.4089 207.479C81.1745 207.08 80.858 206.776 80.4595 206.565C80.0845 206.354 79.6509 206.213 79.1586 206.143C78.6898 206.073 78.221 206.037 77.7522 206.037C76.4865 206.037 75.4317 206.283 74.5878 206.776C73.744 207.245 73.2869 208.147 73.2166 209.483H70.228C70.2749 208.358 70.5093 207.409 70.9312 206.635C71.3531 205.862 71.9157 205.24 72.6189 204.772C73.3221 204.279 74.119 203.928 75.0097 203.717C75.9239 203.506 76.8967 203.4 77.928 203.4C78.7484 203.4 79.5571 203.459 80.3541 203.576C81.1745 203.693 81.9128 203.939 82.5691 204.315C83.2255 204.666 83.7529 205.17 84.1513 205.826C84.5498 206.483 84.7491 207.338 84.7491 208.393V217.746C84.7491 218.449 84.7842 218.965 84.8545 219.293C84.9483 219.621 85.2296 219.785 85.6984 219.785C85.9562 219.785 86.2609 219.726 86.6125 219.609V221.93ZM81.7605 212.612C81.3854 212.894 80.8932 213.105 80.2837 213.245C79.6743 213.362 79.0297 213.468 78.3499 213.562C77.6936 213.632 77.0256 213.726 76.3458 213.843C75.6661 213.937 75.0566 214.101 74.5175 214.335C73.9784 214.57 73.533 214.909 73.1814 215.355C72.8533 215.777 72.6892 216.363 72.6892 217.113C72.6892 217.605 72.7829 218.027 72.9705 218.379C73.1814 218.707 73.4393 218.976 73.744 219.187C74.0721 219.398 74.4472 219.551 74.8691 219.644C75.291 219.738 75.7364 219.785 76.2052 219.785C77.1897 219.785 78.0335 219.656 78.7367 219.398C79.4399 219.117 80.0142 218.777 80.4595 218.379C80.9049 217.957 81.2331 217.511 81.444 217.042C81.655 216.55 81.7605 216.093 81.7605 215.671V212.612ZM89.2886 203.822H92.1014V207.655H92.1717C92.8983 206.178 93.789 205.088 94.8438 204.385C95.8986 203.682 97.2347 203.353 98.8521 203.4V206.565C97.6566 206.565 96.637 206.729 95.7932 207.057C94.9493 207.385 94.2696 207.866 93.7539 208.499C93.2382 209.131 92.8632 209.905 92.6288 210.819C92.3944 211.71 92.2772 212.741 92.2772 213.913V222H89.2886V203.822ZM110.888 203.822H113.701V206.494H113.771C115.131 204.432 117.088 203.4 119.643 203.4C120.768 203.4 121.788 203.635 122.702 204.104C123.616 204.572 124.261 205.369 124.636 206.494C125.245 205.51 126.042 204.748 127.027 204.209C128.035 203.67 129.136 203.4 130.332 203.4C131.246 203.4 132.066 203.506 132.793 203.717C133.543 203.904 134.176 204.209 134.692 204.631C135.231 205.053 135.641 205.604 135.922 206.283C136.227 206.94 136.379 207.737 136.379 208.674V222H133.391V210.081C133.391 209.518 133.344 208.991 133.25 208.499C133.156 208.006 132.981 207.584 132.723 207.233C132.465 206.858 132.102 206.565 131.633 206.354C131.187 206.143 130.601 206.037 129.875 206.037C128.398 206.037 127.238 206.459 126.394 207.303C125.55 208.147 125.128 209.272 125.128 210.678V222H122.14V210.081C122.14 209.495 122.081 208.956 121.964 208.463C121.87 207.971 121.694 207.549 121.436 207.198C121.178 206.823 120.827 206.541 120.382 206.354C119.96 206.143 119.409 206.037 118.729 206.037C117.862 206.037 117.112 206.213 116.479 206.565C115.869 206.916 115.365 207.338 114.967 207.831C114.592 208.323 114.311 208.838 114.123 209.378C113.959 209.893 113.877 210.327 113.877 210.678V222H110.888V203.822ZM143.044 212.929C143.044 214.03 143.184 215.015 143.465 215.882C143.77 216.726 144.18 217.441 144.696 218.027C145.212 218.589 145.809 219.023 146.489 219.328C147.192 219.633 147.931 219.785 148.704 219.785C149.478 219.785 150.204 219.633 150.884 219.328C151.587 219.023 152.197 218.589 152.713 218.027C153.228 217.441 153.627 216.726 153.908 215.882C154.213 215.015 154.365 214.03 154.365 212.929C154.365 211.827 154.213 210.854 153.908 210.01C153.627 209.143 153.228 208.417 152.713 207.831C152.197 207.245 151.587 206.799 150.884 206.494C150.204 206.19 149.478 206.037 148.704 206.037C147.931 206.037 147.192 206.19 146.489 206.494C145.809 206.799 145.212 207.245 144.696 207.831C144.18 208.417 143.77 209.143 143.465 210.01C143.184 210.854 143.044 211.827 143.044 212.929ZM139.879 212.929C139.879 211.593 140.067 210.35 140.442 209.202C140.817 208.03 141.379 207.022 142.129 206.178C142.879 205.311 143.805 204.631 144.907 204.139C146.009 203.646 147.274 203.4 148.704 203.4C150.158 203.4 151.423 203.646 152.502 204.139C153.603 204.631 154.529 205.311 155.279 206.178C156.029 207.022 156.592 208.03 156.967 209.202C157.342 210.35 157.529 211.593 157.529 212.929C157.529 214.265 157.342 215.507 156.967 216.656C156.592 217.804 156.029 218.812 155.279 219.679C154.529 220.523 153.603 221.191 152.502 221.684C151.423 222.152 150.158 222.387 148.704 222.387C147.274 222.387 146.009 222.152 144.907 221.684C143.805 221.191 142.879 220.523 142.129 219.679C141.379 218.812 140.817 217.804 140.442 216.656C140.067 215.507 139.879 214.265 139.879 212.929ZM160.948 203.822H163.76V207.655H163.831C164.557 206.178 165.448 205.088 166.503 204.385C167.558 203.682 168.894 203.353 170.511 203.4V206.565C169.316 206.565 168.296 206.729 167.452 207.057C166.608 207.385 165.929 207.866 165.413 208.499C164.897 209.131 164.522 209.905 164.288 210.819C164.053 211.71 163.936 212.741 163.936 213.913V222H160.948V203.822ZM184.766 211.171C184.719 210.468 184.555 209.799 184.274 209.167C184.016 208.534 183.653 207.995 183.184 207.549C182.739 207.08 182.199 206.717 181.567 206.459C180.957 206.178 180.277 206.037 179.527 206.037C178.754 206.037 178.051 206.178 177.418 206.459C176.808 206.717 176.281 207.08 175.835 207.549C175.39 208.018 175.038 208.569 174.781 209.202C174.523 209.811 174.37 210.468 174.324 211.171H184.766ZM187.649 216.234C187.251 218.273 186.372 219.808 185.012 220.84C183.653 221.871 181.942 222.387 179.879 222.387C178.426 222.387 177.16 222.152 176.082 221.684C175.027 221.215 174.136 220.558 173.409 219.715C172.683 218.871 172.132 217.863 171.757 216.691C171.405 215.519 171.206 214.241 171.159 212.858C171.159 211.475 171.37 210.21 171.792 209.061C172.214 207.913 172.8 206.916 173.55 206.073C174.324 205.229 175.226 204.572 176.257 204.104C177.312 203.635 178.461 203.4 179.703 203.4C181.32 203.4 182.656 203.74 183.711 204.42C184.79 205.076 185.645 205.92 186.278 206.952C186.934 207.983 187.38 209.108 187.614 210.327C187.872 211.546 187.977 212.706 187.93 213.808H174.324C174.3 214.605 174.394 215.366 174.605 216.093C174.816 216.796 175.156 217.429 175.624 217.992C176.093 218.531 176.691 218.965 177.418 219.293C178.144 219.621 179 219.785 179.984 219.785C181.25 219.785 182.281 219.492 183.078 218.906C183.899 218.32 184.438 217.429 184.696 216.234H187.649ZM202.045 206.459H198.986V203.822H202.045V201.115C202.045 199.638 202.467 198.525 203.311 197.775C204.178 197.001 205.432 196.614 207.073 196.614C207.354 196.614 207.67 196.638 208.022 196.685C208.397 196.732 208.725 196.802 209.006 196.896V199.498C208.749 199.404 208.467 199.345 208.163 199.322C207.858 199.275 207.577 199.251 207.319 199.251C206.592 199.251 206.03 199.392 205.631 199.673C205.233 199.955 205.033 200.494 205.033 201.291V203.822H208.549V206.459H205.033V222H202.045V206.459ZM211.112 203.822H213.925V207.655H213.996C214.722 206.178 215.613 205.088 216.668 204.385C217.723 203.682 219.059 203.353 220.676 203.4V206.565C219.481 206.565 218.461 206.729 217.617 207.057C216.773 207.385 216.093 207.866 215.578 208.499C215.062 209.131 214.687 209.905 214.453 210.819C214.218 211.71 214.101 212.741 214.101 213.913V222H211.112V203.822ZM224.488 212.929C224.488 214.03 224.629 215.015 224.91 215.882C225.215 216.726 225.625 217.441 226.141 218.027C226.657 218.589 227.254 219.023 227.934 219.328C228.637 219.633 229.376 219.785 230.149 219.785C230.923 219.785 231.649 219.633 232.329 219.328C233.032 219.023 233.642 218.589 234.157 218.027C234.673 217.441 235.072 216.726 235.353 215.882C235.658 215.015 235.81 214.03 235.81 212.929C235.81 211.827 235.658 210.854 235.353 210.01C235.072 209.143 234.673 208.417 234.157 207.831C233.642 207.245 233.032 206.799 232.329 206.494C231.649 206.19 230.923 206.037 230.149 206.037C229.376 206.037 228.637 206.19 227.934 206.494C227.254 206.799 226.657 207.245 226.141 207.831C225.625 208.417 225.215 209.143 224.91 210.01C224.629 210.854 224.488 211.827 224.488 212.929ZM221.324 212.929C221.324 211.593 221.511 210.35 221.887 209.202C222.262 208.03 222.824 207.022 223.574 206.178C224.324 205.311 225.25 204.631 226.352 204.139C227.454 203.646 228.719 203.4 230.149 203.4C231.602 203.4 232.868 203.646 233.946 204.139C235.048 204.631 235.974 205.311 236.724 206.178C237.474 207.022 238.037 208.03 238.412 209.202C238.787 210.35 238.974 211.593 238.974 212.929C238.974 214.265 238.787 215.507 238.412 216.656C238.037 217.804 237.474 218.812 236.724 219.679C235.974 220.523 235.048 221.191 233.946 221.684C232.868 222.152 231.602 222.387 230.149 222.387C228.719 222.387 227.454 222.152 226.352 221.684C225.25 221.191 224.324 220.523 223.574 219.679C222.824 218.812 222.262 217.804 221.887 216.656C221.511 215.507 221.324 214.265 221.324 212.929ZM242.498 203.822H245.311V206.494H245.381C246.741 204.432 248.698 203.4 251.253 203.4C252.378 203.4 253.398 203.635 254.312 204.104C255.226 204.572 255.871 205.369 256.246 206.494C256.855 205.51 257.652 204.748 258.636 204.209C259.644 203.67 260.746 203.4 261.941 203.4C262.856 203.4 263.676 203.506 264.403 203.717C265.153 203.904 265.786 204.209 266.301 204.631C266.84 205.053 267.251 205.604 267.532 206.283C267.837 206.94 267.989 207.737 267.989 208.674V222H265V210.081C265 209.518 264.954 208.991 264.86 208.499C264.766 208.006 264.59 207.584 264.332 207.233C264.075 206.858 263.711 206.565 263.242 206.354C262.797 206.143 262.211 206.037 261.484 206.037C260.008 206.037 258.847 206.459 258.004 207.303C257.16 208.147 256.738 209.272 256.738 210.678V222H253.749V210.081C253.749 209.495 253.691 208.956 253.573 208.463C253.48 207.971 253.304 207.549 253.046 207.198C252.788 206.823 252.437 206.541 251.991 206.354C251.569 206.143 251.018 206.037 250.339 206.037C249.471 206.037 248.721 206.213 248.088 206.565C247.479 206.916 246.975 207.338 246.577 207.831C246.202 208.323 245.92 208.838 245.733 209.378C245.569 209.893 245.487 210.327 245.487 210.678V222H242.498V203.822ZM41.2636 246.244C41.076 244.439 40.4197 243.138 39.2946 242.341C38.1929 241.521 36.7748 241.111 35.0402 241.111C34.337 241.111 33.6456 241.181 32.9658 241.322C32.286 241.462 31.6766 241.697 31.1375 242.025C30.6218 242.353 30.1999 242.799 29.8717 243.361C29.567 243.9 29.4146 244.58 29.4146 245.4C29.4146 246.174 29.6373 246.807 30.0827 247.299C30.5515 247.768 31.1609 248.155 31.911 248.459C32.6845 248.764 33.5518 249.022 34.5128 249.233C35.4739 249.42 36.4466 249.631 37.4311 249.866C38.439 250.1 39.4235 250.381 40.3846 250.71C41.3456 251.014 42.2012 251.436 42.9512 251.975C43.7248 252.514 44.3342 253.194 44.7796 254.015C45.2484 254.835 45.4828 255.866 45.4828 257.109C45.4828 258.445 45.178 259.593 44.5686 260.554C43.9826 261.492 43.2208 262.265 42.2832 262.875C41.3456 263.461 40.2908 263.883 39.1188 264.141C37.9702 264.422 36.8217 264.563 35.6731 264.563C34.2667 264.563 32.9306 264.387 31.6649 264.035C30.4226 263.684 29.3209 263.156 28.3598 262.453C27.4222 261.726 26.6722 260.812 26.1096 259.71C25.5705 258.585 25.3009 257.261 25.3009 255.737H28.4653C28.4653 256.792 28.6646 257.706 29.063 258.48C29.485 259.23 30.0241 259.851 30.6804 260.343C31.3602 260.836 32.1454 261.199 33.0361 261.433C33.9268 261.668 34.841 261.785 35.7786 261.785C36.5287 261.785 37.2788 261.715 38.0288 261.574C38.8024 261.433 39.4938 261.199 40.1033 260.871C40.7127 260.519 41.205 260.05 41.58 259.464C41.955 258.878 42.1426 258.128 42.1426 257.214C42.1426 256.347 41.9082 255.644 41.4394 255.105C40.994 254.565 40.3846 254.132 39.611 253.804C38.861 253.452 38.0054 253.171 37.0444 252.96C36.0833 252.749 35.0988 252.538 34.0909 252.327C33.1064 252.092 32.1337 251.835 31.1726 251.553C30.2116 251.249 29.3443 250.862 28.5708 250.393C27.8207 249.901 27.2113 249.28 26.7425 248.53C26.2971 247.756 26.0744 246.795 26.0744 245.646C26.0744 244.381 26.3323 243.291 26.848 242.377C27.3636 241.439 28.0434 240.677 28.8872 240.091C29.7545 239.482 30.7273 239.036 31.8055 238.755C32.9072 238.45 34.0323 238.298 35.1809 238.298C36.4701 238.298 37.6655 238.45 38.7672 238.755C39.8689 239.06 40.8299 239.54 41.6503 240.197C42.4942 240.853 43.1505 241.685 43.6193 242.693C44.1115 243.678 44.3811 244.861 44.428 246.244H41.2636ZM53.1982 245.822H56.8197V248.459H53.1982V259.746C53.1982 260.097 53.2216 260.379 53.2685 260.589C53.3388 260.8 53.456 260.965 53.6201 261.082C53.7842 261.199 54.0069 261.281 54.2881 261.328C54.5929 261.351 54.9796 261.363 55.4484 261.363H56.8197V264H54.5343C53.7607 264 53.0927 263.953 52.5301 263.859C51.991 263.742 51.5457 263.543 51.1941 263.262C50.8659 262.98 50.6198 262.582 50.4557 262.066C50.2916 261.551 50.2096 260.871 50.2096 260.027V248.459H47.1155V245.822H50.2096V240.372H53.1982V245.822ZM72.7623 253.171C72.7154 252.468 72.5513 251.799 72.27 251.167C72.0122 250.534 71.6489 249.995 71.1801 249.549C70.7347 249.08 70.1956 248.717 69.5627 248.459C68.9533 248.178 68.2735 248.037 67.5234 248.037C66.7499 248.037 66.0467 248.178 65.4138 248.459C64.8044 248.717 64.277 249.08 63.8316 249.549C63.3863 250.018 63.0347 250.569 62.7768 251.202C62.519 251.811 62.3666 252.468 62.3197 253.171H72.7623ZM75.6454 258.234C75.2469 260.273 74.3679 261.808 73.0084 262.84C71.6489 263.871 69.9377 264.387 67.875 264.387C66.4217 264.387 65.156 264.152 64.0777 263.684C63.0229 263.215 62.1322 262.558 61.4056 261.715C60.6789 260.871 60.1281 259.863 59.7531 258.691C59.4015 257.519 59.2022 256.241 59.1553 254.858C59.1553 253.475 59.3663 252.21 59.7882 251.061C60.2101 249.913 60.7961 248.916 61.5462 248.073C62.3197 247.229 63.2222 246.572 64.2535 246.104C65.3083 245.635 66.4569 245.4 67.6992 245.4C69.3166 245.4 70.6527 245.74 71.7075 246.42C72.7857 247.076 73.6413 247.92 74.2741 248.952C74.9305 249.983 75.3758 251.108 75.6102 252.327C75.8681 253.546 75.9735 254.706 75.9267 255.808H62.3197C62.2963 256.605 62.3901 257.366 62.601 258.093C62.812 258.796 63.1519 259.429 63.6207 259.992C64.0895 260.531 64.6872 260.965 65.4138 261.293C66.1405 261.621 66.996 261.785 67.9805 261.785C69.2463 261.785 70.2776 261.492 71.0746 260.906C71.895 260.32 72.4341 259.429 72.6919 258.234H75.6454ZM80.2552 248.459H77.1963V245.822H80.2552V243.115C80.2552 241.638 80.6771 240.525 81.5209 239.775C82.3882 239.001 83.6423 238.614 85.2831 238.614C85.5643 238.614 85.8808 238.638 86.2324 238.685C86.6074 238.732 86.9356 238.802 87.2169 238.896V241.498C86.959 241.404 86.6777 241.345 86.373 241.322C86.0683 241.275 85.787 241.251 85.5292 241.251C84.8025 241.251 84.24 241.392 83.8415 241.673C83.443 241.955 83.2438 242.494 83.2438 243.291V245.822H86.7598V248.459H83.2438V264H80.2552V248.459ZM106.633 248.565C106.984 248.33 107.36 248.073 107.758 247.791C108.156 247.51 108.52 247.194 108.848 246.842C109.176 246.49 109.446 246.104 109.657 245.682C109.868 245.236 109.973 244.744 109.973 244.205C109.973 243.478 109.715 242.857 109.2 242.341C108.684 241.802 107.981 241.533 107.09 241.533C106.387 241.533 105.73 241.755 105.121 242.201C104.512 242.623 104.207 243.291 104.207 244.205C104.207 244.58 104.277 244.955 104.418 245.33C104.582 245.705 104.781 246.08 105.016 246.455C105.25 246.807 105.508 247.158 105.789 247.51C106.07 247.862 106.352 248.213 106.633 248.565ZM113.067 260.871C112.317 262.043 111.286 262.922 109.973 263.508C108.684 264.094 107.348 264.387 105.965 264.387C104.277 264.387 102.918 264.129 101.886 263.613C100.855 263.098 100.058 262.476 99.4954 261.75C98.9328 261.023 98.5578 260.273 98.3703 259.5C98.2062 258.726 98.1241 258.081 98.1241 257.566C98.1241 256.581 98.2765 255.714 98.5812 254.964C98.9094 254.214 99.3313 253.546 99.847 252.96C100.386 252.35 101.007 251.811 101.71 251.342C102.437 250.85 103.199 250.393 103.996 249.971C103.644 249.479 103.304 249.01 102.976 248.565C102.648 248.119 102.343 247.674 102.062 247.229C101.804 246.76 101.593 246.279 101.429 245.787C101.289 245.271 101.218 244.697 101.218 244.064C101.218 243.385 101.335 242.74 101.57 242.13C101.828 241.498 102.191 240.947 102.66 240.478C103.152 239.986 103.75 239.599 104.453 239.318C105.156 239.036 105.965 238.896 106.879 238.896C107.653 238.896 108.403 239.001 109.129 239.212C109.879 239.423 110.536 239.751 111.098 240.197C111.661 240.619 112.106 241.158 112.434 241.814C112.786 242.447 112.962 243.185 112.962 244.029C112.962 244.779 112.833 245.482 112.575 246.139C112.317 246.772 111.965 247.358 111.52 247.897C111.075 248.436 110.571 248.928 110.008 249.373C109.446 249.795 108.86 250.182 108.25 250.534L112.786 256.054C113.255 254.741 113.524 253.44 113.595 252.151H116.443C116.372 252.901 116.29 253.546 116.196 254.085C116.126 254.601 116.021 255.081 115.88 255.526C115.763 255.972 115.61 256.417 115.423 256.863C115.235 257.284 115.013 257.777 114.755 258.339L119.642 264H115.739L113.067 260.871ZM105.648 251.87C105.062 252.198 104.5 252.538 103.961 252.889C103.445 253.241 102.988 253.64 102.589 254.085C102.191 254.53 101.875 255.034 101.64 255.597C101.406 256.136 101.289 256.78 101.289 257.531C101.289 258.163 101.417 258.749 101.675 259.289C101.957 259.804 102.32 260.25 102.765 260.625C103.211 260.976 103.715 261.258 104.277 261.468C104.863 261.679 105.461 261.785 106.07 261.785C107.219 261.785 108.239 261.515 109.129 260.976C110.043 260.437 110.805 259.71 111.415 258.796L105.648 251.87ZM134.979 250.92H141.519C143.417 250.944 144.8 250.557 145.668 249.76C146.558 248.963 147.004 247.815 147.004 246.315C147.004 244.814 146.558 243.678 145.668 242.904C144.8 242.107 143.417 241.709 141.519 241.709H134.979V250.92ZM131.639 238.896H142.644C145.175 238.896 147.086 239.552 148.375 240.865C149.688 242.154 150.344 243.971 150.344 246.315C150.344 248.659 149.688 250.487 148.375 251.799C147.086 253.112 145.175 253.757 142.644 253.733H134.979V264H131.639V238.896ZM153.946 238.896H156.934V248.494H157.005C157.239 247.932 157.567 247.463 157.989 247.088C158.411 246.69 158.88 246.373 159.395 246.139C159.935 245.881 160.485 245.693 161.048 245.576C161.634 245.459 162.196 245.4 162.736 245.4C163.931 245.4 164.927 245.564 165.724 245.893C166.521 246.221 167.166 246.678 167.658 247.264C168.15 247.85 168.49 248.553 168.678 249.373C168.889 250.17 168.994 251.061 168.994 252.046V264H166.005V251.694C166.005 250.569 165.677 249.678 165.021 249.022C164.365 248.366 163.462 248.037 162.314 248.037C161.4 248.037 160.603 248.178 159.923 248.459C159.266 248.741 158.716 249.139 158.27 249.655C157.825 250.17 157.485 250.78 157.251 251.483C157.04 252.163 156.934 252.913 156.934 253.733V264H153.946V238.896ZM176.647 242.552H173.659V238.896H176.647V242.552ZM173.659 245.822H176.647V264H173.659V245.822ZM181.453 238.896H184.441V264H181.453V238.896ZM192.236 242.552H189.247V238.896H192.236V242.552ZM189.247 245.822H192.236V264H189.247V245.822ZM196.971 245.822H199.96V248.283H200.03C200.522 247.276 201.296 246.549 202.35 246.104C203.405 245.635 204.566 245.4 205.831 245.4C207.238 245.4 208.457 245.658 209.488 246.174C210.543 246.69 211.41 247.393 212.09 248.283C212.793 249.151 213.32 250.159 213.672 251.307C214.024 252.456 214.199 253.675 214.199 254.964C214.199 256.253 214.024 257.472 213.672 258.621C213.344 259.769 212.828 260.777 212.125 261.644C211.445 262.488 210.578 263.156 209.523 263.648C208.492 264.141 207.285 264.387 205.902 264.387C205.456 264.387 204.952 264.34 204.39 264.246C203.851 264.152 203.312 264 202.772 263.789C202.233 263.578 201.718 263.297 201.225 262.945C200.757 262.57 200.358 262.113 200.03 261.574H199.96V270.927H196.971V245.822ZM211.035 254.753C211.035 253.909 210.918 253.089 210.683 252.292C210.472 251.471 210.133 250.745 209.664 250.112C209.218 249.479 208.632 248.975 207.906 248.6C207.203 248.225 206.37 248.037 205.409 248.037C204.401 248.037 203.546 248.237 202.843 248.635C202.14 249.034 201.565 249.561 201.12 250.217C200.675 250.85 200.346 251.577 200.135 252.397C199.948 253.218 199.854 254.05 199.854 254.894C199.854 255.784 199.96 256.652 200.171 257.495C200.382 258.316 200.71 259.042 201.155 259.675C201.624 260.308 202.222 260.824 202.948 261.222C203.675 261.597 204.554 261.785 205.585 261.785C206.617 261.785 207.472 261.586 208.152 261.187C208.855 260.789 209.418 260.261 209.84 259.605C210.261 258.949 210.566 258.199 210.754 257.355C210.941 256.511 211.035 255.644 211.035 254.753ZM219.536 258.269C219.559 258.925 219.712 259.488 219.993 259.957C220.274 260.402 220.637 260.765 221.083 261.047C221.552 261.304 222.067 261.492 222.63 261.609C223.216 261.726 223.814 261.785 224.423 261.785C224.892 261.785 225.384 261.75 225.9 261.679C226.415 261.609 226.884 261.48 227.306 261.293C227.751 261.105 228.115 260.836 228.396 260.484C228.677 260.109 228.818 259.64 228.818 259.078C228.818 258.304 228.525 257.718 227.939 257.32C227.353 256.921 226.615 256.605 225.724 256.37C224.857 256.112 223.907 255.89 222.876 255.702C221.845 255.491 220.884 255.21 219.993 254.858C219.126 254.483 218.399 253.968 217.813 253.311C217.227 252.655 216.934 251.741 216.934 250.569C216.934 249.655 217.133 248.869 217.532 248.213C217.954 247.557 218.481 247.029 219.114 246.631C219.77 246.209 220.497 245.904 221.294 245.717C222.114 245.506 222.923 245.4 223.72 245.4C224.751 245.4 225.7 245.494 226.568 245.682C227.435 245.846 228.197 246.15 228.853 246.596C229.533 247.018 230.072 247.604 230.471 248.354C230.869 249.08 231.103 249.995 231.174 251.096H228.185C228.138 250.51 227.986 250.03 227.728 249.655C227.47 249.256 227.142 248.94 226.744 248.705C226.345 248.471 225.9 248.307 225.407 248.213C224.939 248.096 224.458 248.037 223.966 248.037C223.521 248.037 223.063 248.073 222.595 248.143C222.149 248.213 221.739 248.342 221.364 248.53C220.989 248.694 220.684 248.928 220.45 249.233C220.216 249.514 220.098 249.889 220.098 250.358C220.098 250.874 220.274 251.307 220.626 251.659C221.001 251.987 221.47 252.268 222.032 252.503C222.595 252.714 223.228 252.901 223.931 253.065C224.634 253.206 225.337 253.358 226.04 253.522C226.79 253.686 227.517 253.886 228.22 254.12C228.947 254.354 229.58 254.671 230.119 255.069C230.681 255.444 231.127 255.925 231.455 256.511C231.807 257.097 231.982 257.824 231.982 258.691C231.982 259.793 231.748 260.707 231.279 261.433C230.834 262.16 230.236 262.746 229.486 263.191C228.759 263.637 227.927 263.941 226.99 264.105C226.076 264.293 225.161 264.387 224.247 264.387C223.239 264.387 222.278 264.281 221.364 264.07C220.45 263.859 219.641 263.519 218.938 263.051C218.235 262.558 217.672 261.926 217.25 261.152C216.828 260.355 216.594 259.394 216.547 258.269H219.536ZM235.955 260.097H239.858V263.648C239.858 264.984 239.554 266.133 238.944 267.094C238.335 268.055 237.35 268.735 235.991 269.133V267.375C236.389 267.235 236.717 267.024 236.975 266.742C237.256 266.485 237.479 266.192 237.643 265.863C237.807 265.559 237.913 265.242 237.96 264.914C238.03 264.586 238.053 264.281 238.03 264H235.955V260.097ZM258.023 242.552H255.035V238.896H258.023V242.552ZM258.023 266.285C258.023 267.903 257.625 269.075 256.828 269.801C256.054 270.551 255 270.927 253.663 270.927C253.124 270.927 252.62 270.88 252.152 270.786V268.219C252.269 268.243 252.374 268.254 252.468 268.254C252.538 268.278 252.62 268.29 252.714 268.29H253.347C254.003 268.29 254.449 268.102 254.683 267.727C254.918 267.375 255.035 266.731 255.035 265.793V245.822H258.023V266.285ZM264.833 254.929C264.833 256.03 264.974 257.015 265.255 257.882C265.56 258.726 265.97 259.441 266.486 260.027C267.001 260.589 267.599 261.023 268.279 261.328C268.982 261.633 269.72 261.785 270.494 261.785C271.267 261.785 271.994 261.633 272.674 261.328C273.377 261.023 273.986 260.589 274.502 260.027C275.018 259.441 275.416 258.726 275.698 257.882C276.002 257.015 276.155 256.03 276.155 254.929C276.155 253.827 276.002 252.854 275.698 252.01C275.416 251.143 275.018 250.417 274.502 249.831C273.986 249.245 273.377 248.799 272.674 248.494C271.994 248.19 271.267 248.037 270.494 248.037C269.72 248.037 268.982 248.19 268.279 248.494C267.599 248.799 267.001 249.245 266.486 249.831C265.97 250.417 265.56 251.143 265.255 252.01C264.974 252.854 264.833 253.827 264.833 254.929ZM261.669 254.929C261.669 253.593 261.856 252.35 262.231 251.202C262.606 250.03 263.169 249.022 263.919 248.178C264.669 247.311 265.595 246.631 266.697 246.139C267.798 245.646 269.064 245.4 270.494 245.4C271.947 245.4 273.213 245.646 274.291 246.139C275.393 246.631 276.319 247.311 277.069 248.178C277.819 249.022 278.381 250.03 278.756 251.202C279.131 252.35 279.319 253.593 279.319 254.929C279.319 256.265 279.131 257.507 278.756 258.656C278.381 259.804 277.819 260.812 277.069 261.679C276.319 262.523 275.393 263.191 274.291 263.684C273.213 264.152 271.947 264.387 270.494 264.387C269.064 264.387 267.798 264.152 266.697 263.684C265.595 263.191 264.669 262.523 263.919 261.679C263.169 260.812 262.606 259.804 262.231 258.656C261.856 257.507 261.669 256.265 261.669 254.929ZM286.007 242.552H283.019V238.896H286.007V242.552ZM283.019 245.822H286.007V264H283.019V245.822ZM290.637 245.822H293.45V248.705H293.52C294.762 246.502 296.731 245.4 299.427 245.4C300.622 245.4 301.619 245.564 302.416 245.893C303.213 246.221 303.857 246.678 304.349 247.264C304.842 247.85 305.181 248.553 305.369 249.373C305.58 250.17 305.685 251.061 305.685 252.046V264H302.697V251.694C302.697 250.569 302.369 249.678 301.712 249.022C301.056 248.366 300.154 248.037 299.005 248.037C298.091 248.037 297.294 248.178 296.614 248.459C295.958 248.741 295.407 249.139 294.962 249.655C294.516 250.17 294.176 250.78 293.942 251.483C293.731 252.163 293.626 252.913 293.626 253.733V264H290.637V245.822ZM28.4302 296.929C28.4302 298.03 28.5708 299.015 28.8521 299.882C29.1568 300.726 29.567 301.441 30.0827 302.027C30.5984 302.589 31.1961 303.023 31.8758 303.328C32.579 303.633 33.3174 303.785 34.0909 303.785C34.8644 303.785 35.5911 303.633 36.2708 303.328C36.974 303.023 37.5835 302.589 38.0992 302.027C38.6148 301.441 39.0133 300.726 39.2946 299.882C39.5993 299.015 39.7517 298.03 39.7517 296.929C39.7517 295.827 39.5993 294.854 39.2946 294.01C39.0133 293.143 38.6148 292.417 38.0992 291.831C37.5835 291.245 36.974 290.799 36.2708 290.494C35.5911 290.19 34.8644 290.037 34.0909 290.037C33.3174 290.037 32.579 290.19 31.8758 290.494C31.1961 290.799 30.5984 291.245 30.0827 291.831C29.567 292.417 29.1568 293.143 28.8521 294.01C28.5708 294.854 28.4302 295.827 28.4302 296.929ZM25.2658 296.929C25.2658 295.593 25.4533 294.35 25.8283 293.202C26.2034 292.03 26.7659 291.022 27.516 290.178C28.2661 289.311 29.192 288.631 30.2936 288.139C31.3953 287.646 32.6611 287.4 34.0909 287.4C35.5442 287.4 36.81 287.646 37.8882 288.139C38.9899 288.631 39.9158 289.311 40.6658 290.178C41.4159 291.022 41.9785 292.03 42.3535 293.202C42.7286 294.35 42.9161 295.593 42.9161 296.929C42.9161 298.265 42.7286 299.507 42.3535 300.656C41.9785 301.804 41.4159 302.812 40.6658 303.679C39.9158 304.523 38.9899 305.191 37.8882 305.684C36.81 306.152 35.5442 306.387 34.0909 306.387C32.6611 306.387 31.3953 306.152 30.2936 305.684C29.192 305.191 28.2661 304.523 27.516 303.679C26.7659 302.812 26.2034 301.804 25.8283 300.656C25.4533 299.507 25.2658 298.265 25.2658 296.929ZM61.4883 306H58.6755V303.117H58.6051C57.9723 304.242 57.1636 305.074 56.1791 305.613C55.1946 306.129 54.0343 306.387 52.6983 306.387C51.5028 306.387 50.5066 306.234 49.7097 305.93C48.9127 305.602 48.2681 305.144 47.7759 304.558C47.2836 303.972 46.932 303.281 46.7211 302.484C46.5335 301.664 46.4398 300.761 46.4398 299.777V287.822H49.4284V300.128C49.4284 301.253 49.7565 302.144 50.4129 302.8C51.0692 303.457 51.9716 303.785 53.1202 303.785C54.0343 303.785 54.8196 303.644 55.4759 303.363C56.1557 303.082 56.7182 302.683 57.1636 302.168C57.6089 301.652 57.9371 301.054 58.1481 300.374C58.3825 299.671 58.4997 298.909 58.4997 298.089V287.822H61.4883V306ZM65.8714 287.822H68.6842V291.655H68.7546C69.4812 290.178 70.3719 289.088 71.4267 288.385C72.4815 287.682 73.8176 287.353 75.435 287.4V290.565C74.2395 290.565 73.2199 290.729 72.376 291.057C71.5322 291.385 70.8524 291.866 70.3368 292.499C69.8211 293.131 69.446 293.905 69.2116 294.819C68.9772 295.71 68.86 296.741 68.86 297.913V306H65.8714V287.822ZM87.4712 287.822H90.284V290.494H90.3543C91.7139 288.432 93.6711 287.4 96.2261 287.4C97.3512 287.4 98.3708 287.635 99.285 288.104C100.199 288.572 100.844 289.369 101.219 290.494C101.828 289.51 102.625 288.748 103.61 288.209C104.618 287.67 105.719 287.4 106.915 287.4C107.829 287.4 108.649 287.506 109.376 287.717C110.126 287.904 110.759 288.209 111.275 288.631C111.814 289.053 112.224 289.604 112.505 290.283C112.81 290.94 112.962 291.737 112.962 292.674V306H109.974V294.081C109.974 293.518 109.927 292.991 109.833 292.499C109.739 292.006 109.563 291.584 109.306 291.233C109.048 290.858 108.684 290.565 108.216 290.354C107.77 290.143 107.184 290.037 106.458 290.037C104.981 290.037 103.821 290.459 102.977 291.303C102.133 292.147 101.711 293.272 101.711 294.678V306H98.7224V294.081C98.7224 293.495 98.6638 292.956 98.5466 292.463C98.4529 291.971 98.2771 291.549 98.0192 291.198C97.7614 290.823 97.4098 290.541 96.9644 290.354C96.5425 290.143 95.9917 290.037 95.3119 290.037C94.4446 290.037 93.6945 290.213 93.0617 290.565C92.4522 290.916 91.9483 291.338 91.5498 291.831C91.1747 292.323 90.8935 292.838 90.7059 293.378C90.5419 293.893 90.4598 294.327 90.4598 294.678V306H87.4712V287.822ZM133.55 305.93C133.034 306.234 132.319 306.387 131.405 306.387C130.631 306.387 130.01 306.176 129.542 305.754C129.096 305.309 128.873 304.594 128.873 303.609C128.053 304.594 127.092 305.309 125.99 305.754C124.912 306.176 123.74 306.387 122.474 306.387C121.654 306.387 120.869 306.293 120.119 306.105C119.392 305.918 118.759 305.625 118.22 305.226C117.681 304.828 117.247 304.312 116.919 303.679C116.614 303.023 116.462 302.238 116.462 301.324C116.462 300.292 116.638 299.449 116.989 298.792C117.341 298.136 117.798 297.608 118.361 297.21C118.947 296.788 119.603 296.472 120.33 296.261C121.08 296.05 121.841 295.874 122.615 295.733C123.435 295.569 124.209 295.452 124.936 295.382C125.686 295.288 126.342 295.171 126.905 295.03C127.467 294.866 127.912 294.643 128.241 294.362C128.569 294.057 128.733 293.624 128.733 293.061C128.733 292.405 128.604 291.877 128.346 291.479C128.112 291.08 127.795 290.776 127.397 290.565C127.022 290.354 126.588 290.213 126.096 290.143C125.627 290.073 125.158 290.037 124.689 290.037C123.424 290.037 122.369 290.283 121.525 290.776C120.681 291.245 120.224 292.147 120.154 293.483H117.165C117.212 292.358 117.446 291.409 117.868 290.635C118.29 289.862 118.853 289.24 119.556 288.772C120.259 288.279 121.056 287.928 121.947 287.717C122.861 287.506 123.834 287.4 124.865 287.4C125.686 287.4 126.494 287.459 127.291 287.576C128.112 287.693 128.85 287.939 129.506 288.315C130.163 288.666 130.69 289.17 131.089 289.826C131.487 290.483 131.686 291.338 131.686 292.393V301.746C131.686 302.449 131.721 302.965 131.792 303.293C131.886 303.621 132.167 303.785 132.636 303.785C132.893 303.785 133.198 303.726 133.55 303.609V305.93ZM128.698 296.612C128.323 296.894 127.83 297.105 127.221 297.245C126.612 297.362 125.967 297.468 125.287 297.562C124.631 297.632 123.963 297.726 123.283 297.843C122.603 297.937 121.994 298.101 121.455 298.335C120.916 298.57 120.47 298.909 120.119 299.355C119.79 299.777 119.626 300.363 119.626 301.113C119.626 301.605 119.72 302.027 119.908 302.379C120.119 302.707 120.376 302.976 120.681 303.187C121.009 303.398 121.384 303.551 121.806 303.644C122.228 303.738 122.674 303.785 123.142 303.785C124.127 303.785 124.971 303.656 125.674 303.398C126.377 303.117 126.951 302.777 127.397 302.379C127.842 301.957 128.17 301.511 128.381 301.042C128.592 300.55 128.698 300.093 128.698 299.671V296.612ZM139.496 284.552H136.507V280.896H139.496V284.552ZM136.507 287.822H139.496V306H136.507V287.822ZM144.301 280.896H147.29V306H144.301V280.896ZM155.084 284.552H152.096V280.896H155.084V284.552ZM152.096 287.822H155.084V306H152.096V287.822ZM159.714 287.822H162.527V290.705H162.597C163.839 288.502 165.808 287.4 168.504 287.4C169.699 287.4 170.696 287.564 171.493 287.893C172.29 288.221 172.934 288.678 173.426 289.264C173.919 289.85 174.259 290.553 174.446 291.373C174.657 292.17 174.763 293.061 174.763 294.046V306H171.774V293.694C171.774 292.569 171.446 291.678 170.789 291.022C170.133 290.366 169.231 290.037 168.082 290.037C167.168 290.037 166.371 290.178 165.691 290.459C165.035 290.741 164.484 291.139 164.039 291.655C163.593 292.17 163.253 292.78 163.019 293.483C162.808 294.163 162.703 294.913 162.703 295.733V306H159.714V287.822ZM194.933 304.453C194.933 307.43 194.253 309.657 192.893 311.133C191.534 312.61 189.401 313.348 186.494 313.348C185.65 313.348 184.783 313.255 183.892 313.067C183.025 312.88 182.228 312.575 181.501 312.153C180.798 311.731 180.212 311.18 179.743 310.5C179.275 309.821 179.017 308.989 178.97 308.004H181.958C181.982 308.543 182.146 309 182.451 309.375C182.779 309.75 183.166 310.055 183.611 310.29C184.08 310.524 184.584 310.688 185.123 310.782C185.662 310.899 186.178 310.958 186.67 310.958C187.654 310.958 188.487 310.782 189.166 310.43C189.846 310.102 190.409 309.633 190.854 309.024C191.299 308.438 191.616 307.723 191.803 306.879C192.014 306.035 192.12 305.109 192.12 304.101V302.906H192.049C191.534 304.031 190.748 304.863 189.694 305.402C188.662 305.918 187.561 306.176 186.389 306.176C185.029 306.176 183.845 305.93 182.837 305.437C181.83 304.945 180.986 304.289 180.306 303.468C179.626 302.625 179.111 301.652 178.759 300.55C178.431 299.425 178.267 298.241 178.267 296.999C178.267 295.921 178.407 294.819 178.689 293.694C178.97 292.545 179.439 291.514 180.095 290.6C180.751 289.662 181.619 288.901 182.697 288.315C183.775 287.705 185.099 287.4 186.67 287.4C187.818 287.4 188.873 287.658 189.834 288.174C190.795 288.666 191.545 289.416 192.085 290.424H192.12V287.822H194.933V304.453ZM186.564 303.574C187.549 303.574 188.381 303.375 189.061 302.976C189.764 302.554 190.327 302.015 190.748 301.359C191.17 300.679 191.475 299.917 191.663 299.073C191.874 298.23 191.979 297.386 191.979 296.542C191.979 295.745 191.885 294.96 191.698 294.186C191.51 293.413 191.206 292.721 190.784 292.112C190.385 291.479 189.858 290.975 189.201 290.6C188.545 290.225 187.748 290.037 186.811 290.037C185.85 290.037 185.029 290.225 184.349 290.6C183.67 290.952 183.107 291.432 182.662 292.041C182.24 292.651 181.923 293.354 181.712 294.151C181.525 294.948 181.431 295.78 181.431 296.647C181.431 297.468 181.513 298.288 181.677 299.109C181.841 299.929 182.123 300.679 182.521 301.359C182.92 302.015 183.447 302.554 184.103 302.976C184.76 303.375 185.58 303.574 186.564 303.574ZM209.402 280.896H212.391V306H209.402V280.896ZM220.185 284.552H217.197V280.896H220.185V284.552ZM217.197 287.822H220.185V306H217.197V287.822ZM226.643 300.269C226.667 300.925 226.819 301.488 227.1 301.957C227.382 302.402 227.745 302.765 228.19 303.047C228.659 303.304 229.175 303.492 229.737 303.609C230.323 303.726 230.921 303.785 231.531 303.785C231.999 303.785 232.492 303.75 233.007 303.679C233.523 303.609 233.992 303.48 234.414 303.293C234.859 303.105 235.222 302.836 235.504 302.484C235.785 302.109 235.926 301.64 235.926 301.078C235.926 300.304 235.633 299.718 235.047 299.32C234.461 298.921 233.722 298.605 232.831 298.37C231.964 298.112 231.015 297.89 229.983 297.702C228.952 297.491 227.991 297.21 227.1 296.858C226.233 296.483 225.506 295.968 224.92 295.311C224.334 294.655 224.041 293.741 224.041 292.569C224.041 291.655 224.241 290.869 224.639 290.213C225.061 289.557 225.588 289.029 226.221 288.631C226.878 288.209 227.604 287.904 228.401 287.717C229.222 287.506 230.03 287.4 230.827 287.4C231.859 287.4 232.808 287.494 233.675 287.682C234.543 287.846 235.304 288.15 235.961 288.596C236.64 289.018 237.18 289.604 237.578 290.354C237.977 291.08 238.211 291.995 238.281 293.096H235.293C235.246 292.51 235.093 292.03 234.836 291.655C234.578 291.256 234.25 290.94 233.851 290.705C233.453 290.471 233.007 290.307 232.515 290.213C232.046 290.096 231.566 290.037 231.073 290.037C230.628 290.037 230.171 290.073 229.702 290.143C229.257 290.213 228.847 290.342 228.472 290.53C228.097 290.694 227.792 290.928 227.557 291.233C227.323 291.514 227.206 291.889 227.206 292.358C227.206 292.874 227.382 293.307 227.733 293.659C228.108 293.987 228.577 294.268 229.14 294.503C229.702 294.714 230.335 294.901 231.038 295.065C231.741 295.206 232.445 295.358 233.148 295.522C233.898 295.686 234.625 295.886 235.328 296.12C236.054 296.354 236.687 296.671 237.226 297.069C237.789 297.444 238.234 297.925 238.563 298.511C238.914 299.097 239.09 299.824 239.09 300.691C239.09 301.793 238.856 302.707 238.387 303.433C237.941 304.16 237.344 304.746 236.594 305.191C235.867 305.637 235.035 305.941 234.097 306.105C233.183 306.293 232.269 306.387 231.355 306.387C230.347 306.387 229.386 306.281 228.472 306.07C227.557 305.859 226.749 305.519 226.046 305.051C225.342 304.558 224.78 303.926 224.358 303.152C223.936 302.355 223.702 301.394 223.655 300.269H226.643ZM246.544 287.822H250.165V290.459H246.544V301.746C246.544 302.097 246.567 302.379 246.614 302.589C246.684 302.8 246.802 302.965 246.966 303.082C247.13 303.199 247.353 303.281 247.634 303.328C247.939 303.351 248.325 303.363 248.794 303.363H250.165V306H247.88C247.106 306 246.438 305.953 245.876 305.859C245.337 305.742 244.891 305.543 244.54 305.262C244.212 304.98 243.965 304.582 243.801 304.066C243.637 303.551 243.555 302.871 243.555 302.027V290.459H240.461V287.822H243.555V282.372H246.544V287.822Z" fill="white"/>
<g clip-path="url(#clip0_96_2418)">
<path d="M27 139V173H77V139H27ZM73.1166 140.94L52 156.605L30.8834 140.94H73.1166ZM28.9099 171.06V141.878L52 159.004L75.0901 141.878V171.053H28.9099V171.06Z" fill="white"/>
</g>
<defs>
<clipPath id="clip0_96_2418">
<rect width="50" height="34" fill="white" transform="translate(27 139)"/>
</clipPath>
</defs>
</svg>
