<svg xmlns="http://www.w3.org/2000/svg" width="91" height="91" viewBox="0 0 91 91">
  <g id="Icon_Button" data-name="Icon Button" transform="translate(-510 -1587)">
    <g id="Icon" transform="translate(510 1587)" fill="#fff" stroke="rgba(34,66,122,0.8)" stroke-width="2">
      <circle cx="45.5" cy="45.5" r="45.5" stroke="none"/>
      <circle cx="45.5" cy="45.5" r="44.5" fill="none"/>
    </g>
    <g id="S_P_Icons_2023_AS_Communal_and_shared_facilities" data-name="S&amp;P Icons 2023_AS_Communal and shared facilities" transform="translate(511.122 1589.318)">
      <line id="Line_62" data-name="Line 62" y1="18.692" x2="23.982" transform="translate(20.808 20.6)" fill="none" stroke="#1d1d33" stroke-miterlimit="10" stroke-width="2"/>
      <line id="Line_63" data-name="Line 63" x2="23.988" y2="18.692" transform="translate(43.968 20.6)" fill="none" stroke="#1d1d33" stroke-miterlimit="10" stroke-width="2"/>
      <circle id="Ellipse_22" data-name="Ellipse 22" cx="5.492" cy="5.492" r="5.492" transform="translate(29.213 35.516)" fill="none" stroke="#1d1d33" stroke-miterlimit="10" stroke-width="2"/>
      <path id="Path_139" data-name="Path 139" d="M37.772,69.27A11.88,11.88,0,0,0,25.9,81.154l23.749-.012A11.88,11.88,0,0,0,37.766,69.27Z" transform="translate(-3.061 -19.679)" fill="none" stroke="#1d1d33" stroke-miterlimit="10" stroke-width="2"/>
      <line id="Line_64" data-name="Line 64" y2="6.916" transform="translate(34.711 49.591)" fill="none" stroke="#1d1d33" stroke-miterlimit="10" stroke-width="2"/>
      <circle id="Ellipse_23" data-name="Ellipse 23" cx="4.152" cy="4.152" r="4.152" transform="translate(52.104 41.264)" fill="none" stroke="#1d1d33" stroke-miterlimit="10" stroke-width="2"/>
      <path id="Path_140" data-name="Path 140" d="M75.925,74.14a8.965,8.965,0,0,0-8.965,8.977L84.9,83.1A8.965,8.965,0,0,0,75.925,74.14Z" transform="translate(-19.663 -21.648)" fill="none" stroke="#1d1d33" stroke-miterlimit="10" stroke-width="2"/>
      <line id="Line_65" data-name="Line 65" y2="5.224" transform="translate(56.262 52.492)" fill="none" stroke="#1d1d33" stroke-miterlimit="10" stroke-width="2"/>
      <path id="Path_141" data-name="Path 141" d="M18.33,89.21h52.1" transform="translate(0 -27.741)" fill="none" stroke="#1d1d33" stroke-miterlimit="10" stroke-width="2"/>
    </g>
  </g>
</svg>
