<svg xmlns="http://www.w3.org/2000/svg" width="91" height="91" viewBox="0 0 91 91">
  <g id="Icon_Button" data-name="Icon Button" transform="translate(-510 -1587)">
    <g id="Icon" transform="translate(510 1587)" fill="#fff" stroke="rgba(34,66,122,0.8)" stroke-width="2">
      <circle cx="45.5" cy="45.5" r="45.5" stroke="none"/>
      <circle cx="45.5" cy="45.5" r="44.5" fill="none"/>
    </g>
    <g id="S_P_Icons_2023_AS_Doors_garages_and_locks" data-name="S&amp;P Icons 2023_AS_Doors garages and locks" transform="translate(503.787 1585.544)">
      <path id="Path_135" data-name="Path 135" d="M44.007,78.362H40.738a2.059,2.059,0,0,1-1.459-.6l-5.147-5.147a2.055,2.055,0,0,1,0-2.912l5.147-5.147a2.059,2.059,0,0,1,1.459-.6H69.754a2.063,2.063,0,0,1,2.062,2.062v10.3a2.063,2.063,0,0,1-2.062,2.062H50.182" transform="translate(-0.533 -15.44)" fill="none" stroke="#1d1d33" stroke-miterlimit="10" stroke-width="2"/>
      <path id="Path_136" data-name="Path 136" d="M37.16,50.037,56.405,30.792a2.055,2.055,0,0,1,2.912,0l7.289,7.289a2.059,2.059,0,0,1,.006,2.906l-6.8,6.889" transform="translate(-1.929 -2.463)" fill="none" stroke="#1d1d33" stroke-miterlimit="10" stroke-width="2"/>
      <path id="Path_137" data-name="Path 137" d="M32.14,51.595V25.842A2.063,2.063,0,0,1,34.2,23.78H44.5a2.063,2.063,0,0,1,2.062,2.062v6.181" fill="none" stroke="#1d1d33" stroke-miterlimit="10" stroke-width="2"/>
      <line id="Line_61" data-name="Line 61" y2="2.056" transform="translate(39.349 54.685)" fill="none" stroke="#1d1d33" stroke-miterlimit="10" stroke-width="2"/>
      <path id="Path_138" data-name="Path 138" d="M39.349,75.65A7.211,7.211,0,1,1,32.442,80.8" transform="translate(0 -19.937)" fill="none" stroke="#1d1d33" stroke-miterlimit="10" stroke-width="2"/>
    </g>
  </g>
</svg>
