<svg xmlns="http://www.w3.org/2000/svg" width="20.01" height="20.01" viewBox="0 0 20.01 20.01">
  <path id="Icon_awesome-facebook-square" data-name="Icon awesome-facebook-square" d="M17.866,2.25H2.144A2.144,2.144,0,0,0,0,4.394V20.116A2.144,2.144,0,0,0,2.144,22.26h6.13v-6.8H5.46v-3.2H8.274V9.814c0-2.776,1.653-4.309,4.184-4.309a17.047,17.047,0,0,1,2.48.216V8.446h-1.4a1.6,1.6,0,0,0-1.805,1.73v2.079h3.072l-.491,3.2H11.736v6.8h6.13a2.144,2.144,0,0,0,2.144-2.144V4.394A2.144,2.144,0,0,0,17.866,2.25Z" transform="translate(0 -2.25)" fill="#fff"/>
</svg>
