<svg xmlns="http://www.w3.org/2000/svg" width="25.016" height="25.016" viewBox="0 0 25.016 25.016">
  <path id="Icon_awesome-facebook-square" data-name="Icon awesome-facebook-square" d="M22.335,2.25H2.68A2.68,2.68,0,0,0,0,4.93V24.585a2.68,2.68,0,0,0,2.68,2.68h7.664v-8.5H6.826v-4h3.518V11.707c0-3.47,2.066-5.387,5.23-5.387a21.312,21.312,0,0,1,3.1.27V10H16.929a2,2,0,0,0-2.257,2.163v2.6h3.841l-.614,4H14.672v8.5h7.664a2.68,2.68,0,0,0,2.68-2.68V4.93a2.68,2.68,0,0,0-2.68-2.68Z" transform="translate(0 -2.25)" fill="#20407c"/>
</svg>
