<svg xmlns="http://www.w3.org/2000/svg" width="25.016" height="25.016" viewBox="0 0 25.016 25.016">
  <path id="Icon_awesome-linkedin" data-name="Icon awesome-linkedin" d="M23.229,2.25H1.781A1.8,1.8,0,0,0,0,4.054V25.462a1.8,1.8,0,0,0,1.781,1.8H23.229a1.8,1.8,0,0,0,1.787-1.8V4.054A1.8,1.8,0,0,0,23.229,2.25ZM7.561,23.692H3.853V11.754H7.566V23.692ZM5.707,10.123a2.15,2.15,0,1,1,2.15-2.15A2.151,2.151,0,0,1,5.707,10.123ZM21.459,23.692H17.751V17.885c0-1.385-.028-3.166-1.926-3.166-1.932,0-2.228,1.508-2.228,3.066v5.908H9.889V11.754h3.557v1.63h.05a3.905,3.905,0,0,1,3.512-1.926c3.752,0,4.45,2.474,4.45,5.69Z" transform="translate(0 -2.25)" fill="#20407c"/>
</svg>
