<svg xmlns="http://www.w3.org/2000/svg" width="25.016" height="25.016" viewBox="0 0 25.016 25.016">
  <path id="Icon_awesome-twitter-square" data-name="Icon awesome-twitter-square" d="M22.335,2.25H2.68A2.681,2.681,0,0,0,0,4.93V24.585a2.681,2.681,0,0,0,2.68,2.68H22.335a2.681,2.681,0,0,0,2.68-2.68V4.93A2.681,2.681,0,0,0,22.335,2.25ZM19.6,11.117c.011.156.011.318.011.475A10.348,10.348,0,0,1,9.2,22.011,10.371,10.371,0,0,1,3.574,20.37a7.715,7.715,0,0,0,.882.045A7.342,7.342,0,0,0,9,18.851,3.667,3.667,0,0,1,5.578,16.31a3.947,3.947,0,0,0,1.653-.067,3.662,3.662,0,0,1-2.932-3.6V12.6a3.66,3.66,0,0,0,1.653.463,3.654,3.654,0,0,1-1.63-3.049,3.616,3.616,0,0,1,.5-1.848A10.4,10.4,0,0,0,12.368,12a3.67,3.67,0,0,1,6.248-3.345,7.176,7.176,0,0,0,2.323-.882,3.653,3.653,0,0,1-1.608,2.016,7.288,7.288,0,0,0,2.111-.57A7.708,7.708,0,0,1,19.6,11.117Z" transform="translate(0 -2.25)" fill="#20407c"/>
</svg>
