<svg xmlns="http://www.w3.org/2000/svg" width="91" height="91" viewBox="0 0 91 91">
  <g id="Icon_Button" data-name="Icon Button" transform="translate(-510 -1587)">
    <g id="Icon" transform="translate(510 1587)" fill="#fff" stroke="rgba(34,66,122,0.8)" stroke-width="2">
      <circle cx="45.5" cy="45.5" r="45.5" stroke="none"/>
      <circle cx="45.5" cy="45.5" r="44.5" fill="none"/>
    </g>
    <g id="S_P_Icons_2023_AS_Kitchen" data-name="S&amp;P Icons 2023_AS_Kitchen" transform="translate(511.419 1588.611)">
      <rect id="Rectangle_43" data-name="Rectangle 43" width="14.2" height="19.877" transform="translate(22.07 44.594)" fill="none" stroke="#1d1d33" stroke-miterlimit="10" stroke-width="2"/>
      <rect id="Rectangle_44" data-name="Rectangle 44" width="8.516" height="5.678" transform="translate(24.915 55.955)" fill="none" stroke="#1d1d33" stroke-miterlimit="10" stroke-width="2"/>
      <line id="Line_26" data-name="Line 26" x2="14.2" transform="translate(22.07 50.277)" fill="none" stroke="#1d1d33" stroke-miterlimit="10" stroke-width="2"/>
      <rect id="Rectangle_45" data-name="Rectangle 45" width="14.908" height="19.877" transform="translate(51.184 44.594)" fill="none" stroke="#1d1d33" stroke-miterlimit="10" stroke-width="2"/>
      <line id="Line_27" data-name="Line 27" x1="14.914" transform="translate(36.27 64.477)" fill="none" stroke="#1d1d33" stroke-miterlimit="10" stroke-width="2"/>
      <line id="Line_28" data-name="Line 28" x2="14.914" transform="translate(36.27 44.594)" fill="none" stroke="#1d1d33" stroke-miterlimit="10" stroke-width="2"/>
      <rect id="Rectangle_46" data-name="Rectangle 46" width="14.908" height="11.361" transform="translate(51.184 23.3)" fill="none" stroke="#1d1d33" stroke-miterlimit="10" stroke-width="2"/>
      <path id="Path_103" data-name="Path 103" d="M61.438,34.655H46.53V23.3H61.438" transform="translate(-10.26)" fill="none" stroke="#1d1d33" stroke-miterlimit="10" stroke-width="2"/>
      <circle id="Ellipse_14" data-name="Ellipse 14" cx="0.708" cy="0.708" r="0.708" transform="translate(24.915 46.73)" fill="#1d1d33" stroke="#1d1d33" stroke-miterlimit="10" stroke-width="2"/>
      <circle id="Ellipse_15" data-name="Ellipse 15" cx="0.708" cy="0.708" r="0.708" transform="translate(29.176 46.73)" fill="#1d1d33" stroke="#1d1d33" stroke-miterlimit="10" stroke-width="2"/>
      <circle id="Ellipse_16" data-name="Ellipse 16" cx="0.708" cy="0.708" r="0.708" transform="translate(32.015 46.73)" fill="#1d1d33" stroke="#1d1d33" stroke-miterlimit="10" stroke-width="2"/>
      <circle id="Ellipse_17" data-name="Ellipse 17" cx="0.708" cy="0.708" r="0.708" transform="translate(53.309 46.73)" fill="#1d1d33" stroke="#1d1d33" stroke-miterlimit="10" stroke-width="2"/>
      <circle id="Ellipse_18" data-name="Ellipse 18" cx="0.708" cy="0.708" r="0.708" transform="translate(53.309 31.108)" fill="#1d1d33" stroke="#1d1d33" stroke-miterlimit="10" stroke-width="2"/>
      <circle id="Ellipse_19" data-name="Ellipse 19" cx="0.708" cy="0.708" r="0.708" transform="translate(47.631 31.108)" fill="#1d1d33" stroke="#1d1d33" stroke-miterlimit="10" stroke-width="2"/>
      <path id="Path_104" data-name="Path 104" d="M87.275,51.622a1.422,1.422,0,1,0-2.845,0v4.261" transform="translate(-26.158 -11.284)" fill="none" stroke="#1d1d33" stroke-miterlimit="10" stroke-width="2"/>
      <line id="Line_29" data-name="Line 29" y1="1.417" x2="1.422" transform="translate(58.278 43.177)" fill="none" stroke="#1d1d33" stroke-miterlimit="10" stroke-width="2"/>
      <line id="Line_30" data-name="Line 30" y2="4.255" transform="translate(27.039 23.3)" fill="none" stroke="#1d1d33" stroke-miterlimit="10" stroke-width="2"/>
      <line id="Line_31" data-name="Line 31" y2="4.255" transform="translate(31.3 23.3)" fill="none" stroke="#1d1d33" stroke-miterlimit="10" stroke-width="2"/>
      <path id="Path_105" data-name="Path 105" d="M36.27,35.605V37.73H22.07V35.605l4.969-4.975H31.3Z" transform="translate(0 -3.075)" fill="none" stroke="#1d1d33" stroke-miterlimit="10" stroke-width="2"/>
      <circle id="Ellipse_20" data-name="Ellipse 20" cx="0.708" cy="0.708" r="0.708" transform="translate(47.631 46.73)" fill="#1d1d33" stroke="#1d1d33" stroke-miterlimit="10" stroke-width="2"/>
    </g>
  </g>
</svg>
