<svg xmlns="http://www.w3.org/2000/svg" width="20.01" height="20.01" viewBox="0 0 20.01 20.01">
  <path id="Icon_awesome-linkedin" data-name="Icon awesome-linkedin" d="M18.58,2.25H1.425A1.435,1.435,0,0,0,0,3.693V20.817A1.435,1.435,0,0,0,1.425,22.26H18.58a1.439,1.439,0,0,0,1.429-1.443V3.693A1.439,1.439,0,0,0,18.58,2.25ZM6.048,19.4H3.082V9.852h2.97V19.4ZM4.565,8.548a1.72,1.72,0,1,1,1.72-1.72A1.72,1.72,0,0,1,4.565,8.548ZM17.165,19.4H14.2V14.756c0-1.108-.022-2.532-1.541-2.532-1.545,0-1.782,1.206-1.782,2.452V19.4H7.91V9.852h2.845v1.3h.04A3.124,3.124,0,0,1,13.6,9.615c3,0,3.56,1.979,3.56,4.551Z" transform="translate(0 -2.25)" fill="#fff"/>
</svg>
