<svg id="Logo" xmlns="http://www.w3.org/2000/svg" xmlns:xlink="http://www.w3.org/1999/xlink" width="134.904" height="155" viewBox="0 0 134.904 155">
  <defs>
    <clipPath id="clip-path">
      <rect id="Rectangle_32" data-name="Rectangle 32" width="134.904" height="155" fill="none"/>
    </clipPath>
  </defs>
  <path id="Path_67" data-name="Path 67" d="M67.258,0,0,38.621V140.483H53.476v-3.4H3.633V40.526L67.258,3.992l63.625,36.535V99.707h3.633V38.621Z" fill="#2a8cff"/>
  <g id="Group_10" data-name="Group 10">
    <g id="Group_9" data-name="Group 9" clip-path="url(#clip-path)">
      <path id="Path_68" data-name="Path 68" d="M343.886,355.037a10.72,10.72,0,0,1-4.733-1.01,7.894,7.894,0,0,1-3.277-2.872,7.748,7.748,0,0,1-1.179-4.234,8.469,8.469,0,0,1,1.553-4.839,10.321,10.321,0,0,1,3.146-2.991l.338-.208-.2-.341a13.561,13.561,0,0,1-.807-1.58,6.864,6.864,0,0,1-.565-2.716,5.226,5.226,0,0,1,.894-2.983,6.233,6.233,0,0,1,2.358-2.057,7.173,7.173,0,0,1,3.306-.755,6.5,6.5,0,0,1,3.069.706,5.567,5.567,0,0,1,2.136,1.964,5.252,5.252,0,0,1,.8,2.847,5.66,5.66,0,0,1-.6,2.519,4.819,4.819,0,0,1-1.592,1.9l-.43.293-1.826-2.256.36-.36a3.272,3.272,0,0,0,.6-.916,2.7,2.7,0,0,0,.274-1.177,2.545,2.545,0,0,0-.749-1.917,2.772,2.772,0,0,0-2.044-.738,3.482,3.482,0,0,0-2.429.844,2.614,2.614,0,0,0-.919,2.088,4.763,4.763,0,0,0,.97,2.791c.7.994,1.482,2.007,2.326,3.009l6.085,6.845c.152.161.3.311.445.46l.4.408.247-.517a12.769,12.769,0,0,0,.744-1.983,14.337,14.337,0,0,0,.409-1.979l.066-.476-2.162.087-.025-2.972,7.463-.3.025,2.971-2.162.087-.034.349a16.849,16.849,0,0,1-.661,3.37,13.494,13.494,0,0,1-1.409,3.12l-.2.314.3.221a11.614,11.614,0,0,0,2.192,1.339,5.455,5.455,0,0,0,2.143.54c.127,0,.241,0,.346-.014a2.856,2.856,0,0,0,.305-.044l.663-.132.056,2.865-.4.127a5.157,5.157,0,0,1-1.556.234,7.375,7.375,0,0,1-3.3-.839,16.625,16.625,0,0,1-2.623-1.66l-.252-.192-.246.2a11.032,11.032,0,0,1-3.075,1.761,12.822,12.822,0,0,1-4.564.8m-2.651-13.6a7.539,7.539,0,0,0-2.217,2.118,5.769,5.769,0,0,0-1.112,3.366,4.8,4.8,0,0,0,1.595,3.8,6.285,6.285,0,0,0,4.385,1.449,8.465,8.465,0,0,0,5.29-1.658l.364-.275-.318-.327c-.22-.227-.444-.465-.665-.708l-6.481-7.312-.549-.64Z" transform="translate(-225.915 -221.699)" fill="#2a8cff"/>
      <path id="Path_69" data-name="Path 69" d="M184.482,400.4h-7.605v20.133H181.1v-7.293h3.719c4.224,0,6.73-2.562,6.73-6.364a6.446,6.446,0,0,0-1.8-4.59,7.055,7.055,0,0,0-5.266-1.886m-.394,9.517H181.1v-5.97h3.043c2.027,0,3.21,1.07,3.21,2.957,0,1.83-1.126,3.013-3.266,3.013" transform="translate(-119.389 -270.262)" fill="#fff"/>
      <path id="Path_70" data-name="Path 70" d="M234.808,405.692a4.393,4.393,0,0,0-4.061,2.281h-.085V400.4h-3.829v20.133h3.829v-8.194c0-1.971,1.1-3.323,2.794-3.323a2.4,2.4,0,0,1,2.506,2.647v8.87h3.83V411.1c0-3.154-2-5.406-4.984-5.406" transform="translate(-153.108 -270.262)" fill="#fff"/>
      <rect id="Rectangle_27" data-name="Rectangle 27" width="3.829" height="3.435" transform="translate(88.625 130.136)" fill="#fff"/>
      <rect id="Rectangle_28" data-name="Rectangle 28" width="3.829" height="14.445" transform="translate(88.625 135.824)" fill="#fff"/>
      <rect id="Rectangle_29" data-name="Rectangle 29" width="3.829" height="20.133" transform="translate(94.835 130.136)" fill="#fff"/>
      <rect id="Rectangle_30" data-name="Rectangle 30" width="3.829" height="3.435" transform="translate(101.199 130.136)" fill="#fff"/>
      <rect id="Rectangle_31" data-name="Rectangle 31" width="3.829" height="14.445" transform="translate(101.199 135.824)" fill="#fff"/>
      <path id="Path_71" data-name="Path 71" d="M337.757,416.686a5.048,5.048,0,0,0-4.252,2.2h-.085v-1.8h-3.689v19.176h3.829v-6.363h.056a4.652,4.652,0,0,0,4.168,2.055c3.717,0,6.251-2.957,6.251-7.631,0-4.505-2.45-7.631-6.279-7.631m-.788,12.08c-2.281,0-3.492-1.718-3.492-4.336,0-2.59.957-4.646,3.351-4.646,2.365,0,3.323,1.915,3.323,4.646s-1.239,4.336-3.182,4.336" transform="translate(-222.563 -281.256)" fill="#fff"/>
      <path id="Path_72" data-name="Path 72" d="M383.327,422.74c-2.056-.423-3.97-.535-3.97-1.774,0-1.042.985-1.6,2.478-1.6,1.633,0,2.618.563,2.787,2.11l3.452-.1c-.32-2.844-2.425-4.689-6.183-4.689-3.295,0-5.885,1.492-5.885,4.618,0,3.154,2.534,3.858,5.125,4.364,1.971.394,3.8.535,3.8,1.915,0,1.014-.957,1.661-2.647,1.661-1.717,0-2.9-.732-3.153-2.392l-3.538.1c.268,3.013,2.6,5,6.748,5,3.6,0,6.082-1.746,6.082-4.646,0-3.379-2.675-4.055-5.1-4.562" transform="translate(-253.519 -281.256)" fill="#fff"/>
      <path id="Path_73" data-name="Path 73" d="M236.316,347.915v-7.345l2.478-.069v-2.685l-2.478.069v-4.668h-3.745v4.773l-2,.056v2.685l2-.056v8.058c0,2.731,2.055,3.463,3.914,3.463,1.52,0,2.393-.056,2.393-.056v-2.816s-.648.028-1.127.028a1.267,1.267,0,0,1-1.436-1.436" transform="translate(-155.632 -224.915)" fill="#fff"/>
      <path id="Path_74" data-name="Path 74" d="M185.772,336.814c-2.985-.648-4.393-1.127-4.393-2.759,0-1.436,1.436-2.365,3.632-2.365,2.076,0,3.648,1.007,3.883,3.018l3.9-.109c-.363-3.97-3.275-6.148-7.758-6.148s-7.716,2.056-7.716,6.026c0,4.2,3.295,5.153,6.9,5.97,3.069.7,4.984,1.1,4.984,3.069,0,1.858-1.831,2.59-3.914,2.59-2.868,0-4.248-.955-4.532-3.369l-3.993.111c.2,4.176,3.284,6.553,8.694,6.553,4.533,0,7.828-2.281,7.828-6.364,0-4.336-3.379-5.322-7.518-6.223" transform="translate(-119.315 -221.699)" fill="#fff"/>
      <path id="Path_75" data-name="Path 75" d="M266.644,345.865c-4.224,0-7.124,3.323-7.124,7.6,0,4.308,2.7,7.659,7.49,7.659,3.7,0,5.977-2.149,6.525-4.7l-3.824.107a2.7,2.7,0,0,1-2.729,1.634c-2.168,0-3.407-1.38-3.689-3.6h10.475c0-5.153-2.478-8.7-7.124-8.7m-3.295,6.054c.338-1.886,1.323-3.1,3.351-3.1a3.047,3.047,0,0,1,3.069,3.1Z" transform="translate(-175.172 -233.453)" fill="#fff"/>
      <path id="Path_76" data-name="Path 76" d="M313.748,332.475v-2.957c-3.689-.394-6.42.845-6.42,4.364v1.389l-1.886.053v2.685l1.886-.053v11.666h3.83V337.85l2.506-.07V335.1l-2.506.07v-1.057c0-1.492.788-1.718,2.59-1.633" transform="translate(-206.168 -222.372)" fill="#fff"/>
    </g>
  </g>
</svg>
