<svg id="Logo" xmlns="http://www.w3.org/2000/svg" xmlns:xlink="http://www.w3.org/1999/xlink" width="158.448" height="26.573" viewBox="0 0 158.448 26.573">
  <defs>
    <clipPath id="clip-path">
      <rect id="Rectangle_38" data-name="Rectangle 38" width="158.448" height="26.573" fill="none"/>
    </clipPath>
  </defs>
  <g id="Group_12" data-name="Group 12" clip-path="url(#clip-path)">
    <path id="Path_77" data-name="Path 77" d="M333.117,22.477a9.064,9.064,0,0,1-4-.854,6.674,6.674,0,0,1-2.771-2.428,6.553,6.553,0,0,1-1-3.579,7.162,7.162,0,0,1,1.313-4.091A8.727,8.727,0,0,1,329.322,9l.286-.176-.172-.288a11.422,11.422,0,0,1-.682-1.336,5.8,5.8,0,0,1-.478-2.3,4.417,4.417,0,0,1,.756-2.522A5.27,5.27,0,0,1,331.024.638,6.065,6.065,0,0,1,333.82,0a5.5,5.5,0,0,1,2.595.6,4.708,4.708,0,0,1,1.806,1.661,4.44,4.44,0,0,1,.674,2.407,4.786,4.786,0,0,1-.5,2.129,4.074,4.074,0,0,1-1.346,1.6l-.364.247-1.543-1.907.3-.3a2.77,2.77,0,0,0,.507-.775,2.28,2.28,0,0,0,.232-1,2.152,2.152,0,0,0-.633-1.621,2.343,2.343,0,0,0-1.728-.624,2.944,2.944,0,0,0-2.053.714,2.211,2.211,0,0,0-.777,1.765,4.027,4.027,0,0,0,.82,2.36c.592.84,1.253,1.7,1.966,2.544l5.145,5.787c.129.136.252.263.376.389l.34.345.209-.437a10.8,10.8,0,0,0,.629-1.677,12.154,12.154,0,0,0,.346-1.673l.055-.4-1.827.073L339.027,9.7l6.31-.254.021,2.512-1.828.073-.028.295a14.235,14.235,0,0,1-.559,2.849,11.408,11.408,0,0,1-1.191,2.638l-.165.265.25.187a9.82,9.82,0,0,0,1.853,1.132,4.612,4.612,0,0,0,1.812.457c.108,0,.2,0,.293-.012a2.367,2.367,0,0,0,.258-.037l.561-.112.047,2.423-.341.108a4.355,4.355,0,0,1-1.315.2,6.235,6.235,0,0,1-2.79-.709,14.056,14.056,0,0,1-2.217-1.4l-.213-.163-.208.17a9.341,9.341,0,0,1-2.6,1.489,10.843,10.843,0,0,1-3.859.675m-2.241-11.5A6.373,6.373,0,0,0,329,12.77a4.879,4.879,0,0,0-.94,2.846,4.063,4.063,0,0,0,1.348,3.215,5.315,5.315,0,0,0,3.708,1.225,7.156,7.156,0,0,0,4.472-1.4l.308-.232-.269-.276c-.186-.192-.375-.393-.562-.6l-5.479-6.182-.464-.541Z" transform="translate(-271.265)" fill="#2a8cff"/>
    <path id="Path_78" data-name="Path 78" d="M472.115,2.787h-7.986V23.929h4.435V16.27h3.906c4.435,0,7.067-2.691,7.067-6.683a6.768,6.768,0,0,0-1.892-4.82,7.408,7.408,0,0,0-5.529-1.981m-.414,9.994h-3.137V6.513h3.2c2.129,0,3.371,1.124,3.371,3.1,0,1.922-1.183,3.164-3.43,3.164" transform="translate(-386.976 -2.324)" fill="#fff"/>
    <path id="Path_79" data-name="Path 79" d="M575.071,8.346a4.614,4.614,0,0,0-4.264,2.4h-.089V2.787H566.7V23.929h4.021v-8.6c0-2.07,1.16-3.489,2.934-3.489a2.524,2.524,0,0,1,2.632,2.779v9.314h4.021V14.023c0-3.312-2.1-5.677-5.234-5.677" transform="translate(-472.494 -2.324)" fill="#fff"/>
    <rect id="Rectangle_33" data-name="Rectangle 33" width="4.021" height="3.607" transform="translate(109.851 0.463)" fill="#fff"/>
    <rect id="Rectangle_34" data-name="Rectangle 34" width="4.021" height="15.169" transform="translate(109.851 6.436)" fill="#fff"/>
    <rect id="Rectangle_35" data-name="Rectangle 35" width="4.021" height="21.142" transform="translate(116.372 0.463)" fill="#fff"/>
    <rect id="Rectangle_36" data-name="Rectangle 36" width="4.021" height="3.607" transform="translate(123.054 0.463)" fill="#fff"/>
    <rect id="Rectangle_37" data-name="Rectangle 37" width="4.021" height="15.169" transform="translate(123.054 6.436)" fill="#fff"/>
    <path id="Path_80" data-name="Path 80" d="M786.392,36.228a5.3,5.3,0,0,0-4.465,2.306h-.089V36.642h-3.874V56.778h4.021V50.1h.059a4.885,4.885,0,0,0,4.376,2.159c3.9,0,6.564-3.1,6.564-8.013,0-4.731-2.573-8.013-6.594-8.013m-.828,12.685c-2.4,0-3.667-1.8-3.667-4.554,0-2.72,1.005-4.879,3.519-4.879,2.484,0,3.489,2.011,3.489,4.879s-1.3,4.554-3.341,4.554" transform="translate(-648.642 -30.206)" fill="#fff"/>
    <path id="Path_81" data-name="Path 81" d="M880.245,42.585c-2.159-.444-4.169-.562-4.169-1.863,0-1.094,1.035-1.685,2.6-1.685,1.714,0,2.749.591,2.927,2.216l3.625-.1c-.336-2.987-2.547-4.924-6.493-4.924-3.46,0-6.18,1.567-6.18,4.849,0,3.312,2.661,4.051,5.381,4.583,2.07.414,3.992.562,3.992,2.01,0,1.065-1.005,1.745-2.779,1.745-1.8,0-3.045-.768-3.311-2.512l-3.716.1c.282,3.164,2.729,5.247,7.086,5.247,3.785,0,6.387-1.833,6.387-4.879,0-3.548-2.809-4.258-5.352-4.79" transform="translate(-727.149 -30.206)" fill="#fff"/>
    <path id="Path_82" data-name="Path 82" d="M116.5,25.663V17.949l2.6-.073V15.057l-2.6.073v-4.9h-3.933V15.24l-2.1.059v2.819l2.1-.059V26.52c0,2.868,2.158,3.637,4.11,3.637,1.6,0,2.513-.059,2.513-.059V27.141s-.68.03-1.183.03a1.331,1.331,0,0,1-1.508-1.508" transform="translate(-92.105 -8.528)" fill="#fff"/>
    <path id="Path_83" data-name="Path 83" d="M9.455,9.226c-3.134-.68-4.613-1.183-4.613-2.9,0-1.508,1.508-2.484,3.814-2.484,2.18,0,3.831,1.057,4.077,3.17l4.1-.114C16.452,2.73,13.394.444,8.686.444S.584,2.6.584,6.772c0,4.406,3.46,5.411,7.245,6.269,3.223.739,5.234,1.153,5.234,3.223,0,1.952-1.922,2.72-4.11,2.72-3.012,0-4.461-1-4.759-3.538L0,15.562c.205,4.385,3.448,6.881,9.13,6.881,4.76,0,8.22-2.4,8.22-6.683,0-4.554-3.548-5.589-7.895-6.535" transform="translate(0 -0.37)" fill="#fff"/>
    <path id="Path_84" data-name="Path 84" d="M177.385,36.2c-4.436,0-7.481,3.489-7.481,7.984,0,4.524,2.839,8.043,7.865,8.043,3.886,0,6.276-2.257,6.852-4.932l-4.016.112a2.831,2.831,0,0,1-2.866,1.716c-2.277,0-3.578-1.449-3.874-3.785h11c0-5.411-2.6-9.137-7.481-9.137m-3.46,6.357c.355-1.981,1.39-3.253,3.519-3.253a3.2,3.2,0,0,1,3.223,3.253Z" transform="translate(-141.661 -30.181)" fill="#fff"/>
    <path id="Path_85" data-name="Path 85" d="M272.91,5.669v-3.1c-3.873-.414-6.742.887-6.742,4.583V8.607l-1.981.055v2.82l1.981-.055V23.677h4.021V11.314l2.632-.073V8.421l-2.632.073V7.384c0-1.567.828-1.8,2.72-1.715" transform="translate(-220.271 -2.077)" fill="#fff"/>
  </g>
</svg>
