<svg xmlns="http://www.w3.org/2000/svg" width="91" height="91" viewBox="0 0 91 91">
  <g id="Icon_Button" data-name="Icon Button" transform="translate(-510 -1587)">
    <g id="Icon" transform="translate(510 1587)" fill="#fff" stroke="rgba(34,66,122,0.8)" stroke-width="2">
      <circle cx="45.5" cy="45.5" r="45.5" stroke="none"/>
      <circle cx="45.5" cy="45.5" r="44.5" fill="none"/>
    </g>
    <g id="S_P_Icons_2023_AS_Other" data-name="S&amp;P Icons 2023_AS_Other" transform="translate(513.741 1586.542)">
      <path id="Path_97" data-name="Path 97" d="M60.153,40.852l-1.495,2.1A1.993,1.993,0,0,0,58.311,44v.582H56.33V43.9a2.88,2.88,0,0,1,.661-1.926l1.517-2.043a2.486,2.486,0,0,0,.6-1.478,1.87,1.87,0,0,0-1.9-1.943,1.848,1.848,0,0,0-1.887,1.965H53.34a3.683,3.683,0,0,1,3.868-3.729,3.626,3.626,0,0,1,3.885,3.712,3.962,3.962,0,0,1-.935,2.39ZM56.206,48.7V46.585H58.4V48.7Z" transform="translate(-15.45 -3.169)" fill="#1d1d33"/>
      <path id="Path_98" data-name="Path 98" d="M28.29,49.025V28.574a1.025,1.025,0,0,1,1.024-1.024H63.061a1.025,1.025,0,0,1,1.025,1.024V49.025" transform="translate(-4.424)" fill="none" stroke="#1d1d33" stroke-miterlimit="10" stroke-width="2"/>
      <path id="Path_99" data-name="Path 99" d="M64.258,81.249H19.264L18.24,79.48l5.111-13.57h35.79l6.136,13.57Z" transform="translate(0 -16.885)" fill="none" stroke="#1d1d33" stroke-miterlimit="10" stroke-width="2"/>
      <path id="Path_100" data-name="Path 100" d="M52.03,87.7,53.054,86h7.155l1.024,1.7" transform="translate(-14.873 -25.728)" fill="none" stroke="#1d1d33" stroke-miterlimit="10" stroke-width="2"/>
      <line id="Line_12" data-name="Line 12" x2="4.283" transform="translate(29.89 52.591)" fill="none" stroke="#1d1d33" stroke-miterlimit="10" stroke-width="2"/>
      <line id="Line_13" data-name="Line 13" x2="4.283" transform="translate(36.407 52.591)" fill="none" stroke="#1d1d33" stroke-miterlimit="10" stroke-width="2"/>
      <line id="Line_14" data-name="Line 14" x2="4.283" transform="translate(42.828 52.591)" fill="none" stroke="#1d1d33" stroke-miterlimit="10" stroke-width="2"/>
      <line id="Line_15" data-name="Line 15" x2="4.283" transform="translate(49.344 52.591)" fill="none" stroke="#1d1d33" stroke-miterlimit="10" stroke-width="2"/>
      <line id="Line_16" data-name="Line 16" x2="4.283" transform="translate(33.148 56.13)" fill="none" stroke="#1d1d33" stroke-miterlimit="10" stroke-width="2"/>
      <line id="Line_17" data-name="Line 17" x2="4.283" transform="translate(39.665 56.13)" fill="none" stroke="#1d1d33" stroke-miterlimit="10" stroke-width="2"/>
      <line id="Line_18" data-name="Line 18" x2="4.283" transform="translate(46.086 56.13)" fill="none" stroke="#1d1d33" stroke-miterlimit="10" stroke-width="2"/>
    </g>
  </g>
</svg>
