<svg xmlns="http://www.w3.org/2000/svg" width="70" height="74.312" viewBox="0 0 70 74.312">
  <g id="Icon_and_number" data-name="Icon and number" transform="translate(-869 -786.688)">
    <path id="Shape_D" data-name="Shape D" d="M1658.265,27.965h-23.333V84.49h70V27.965L1681.6,10.178Z" transform="translate(-765.932 776.51)" fill="#ec254e"/>
    <path id="Icon_material-local-phone" data-name="Icon material-local-phone" d="M9.93,16.185a22.723,22.723,0,0,0,9.885,9.885l3.3-3.3a1.491,1.491,0,0,1,1.53-.36A17.11,17.11,0,0,0,30,23.265a1.5,1.5,0,0,1,1.5,1.5V30A1.5,1.5,0,0,1,30,31.5,25.5,25.5,0,0,1,4.5,6,1.5,1.5,0,0,1,6,4.5h5.25A1.5,1.5,0,0,1,12.75,6a17.041,17.041,0,0,0,.855,5.355,1.505,1.505,0,0,1-.375,1.53l-3.3,3.3Z" transform="translate(886 815)" fill="#fff"/>
  </g>
</svg>
