<svg width="19" height="19" viewBox="0 0 19 19" fill="none" xmlns="http://www.w3.org/2000/svg">
<mask id="path-1-inside-1_359_418" fill="white">
<path d="M12.699 11.5745C13.6684 10.3531 14.2694 8.80204 14.2694 7.13469C14.25 3.19898 11.0704 0 7.13469 0C3.19898 0 0 3.19898 0 7.13469C0 11.0704 3.19898 14.2694 7.13469 14.2694C8.82143 14.2694 10.3531 13.6878 11.5745 12.699L17.8755 19L19 17.8755L12.699 11.5745ZM7.13469 12.6796C4.07143 12.6796 1.5898 10.1786 1.5898 7.13469C1.5898 4.09082 4.07143 1.5898 7.13469 1.5898C10.198 1.5898 12.6796 4.07143 12.6796 7.13469C12.6796 10.198 10.1786 12.6796 7.13469 12.6796Z"/>
</mask>
<path d="M12.699 11.5745C13.6684 10.3531 14.2694 8.80204 14.2694 7.13469C14.25 3.19898 11.0704 0 7.13469 0C3.19898 0 0 3.19898 0 7.13469C0 11.0704 3.19898 14.2694 7.13469 14.2694C8.82143 14.2694 10.3531 13.6878 11.5745 12.699L17.8755 19L19 17.8755L12.699 11.5745ZM7.13469 12.6796C4.07143 12.6796 1.5898 10.1786 1.5898 7.13469C1.5898 4.09082 4.07143 1.5898 7.13469 1.5898C10.198 1.5898 12.6796 4.07143 12.6796 7.13469C12.6796 10.198 10.1786 12.6796 7.13469 12.6796Z" fill="#2A8BFF"/>
<path d="M12.699 11.5745L11.1324 10.3312L10.0239 11.7279L11.2848 12.9887L12.699 11.5745ZM14.2694 7.13469L16.2694 7.13469L16.2694 7.12484L14.2694 7.13469ZM11.5745 12.699L12.9887 11.2848L11.7155 10.0116L10.3161 11.1445L11.5745 12.699ZM17.8755 19L16.4613 20.4142L17.8755 21.8284L19.2897 20.4142L17.8755 19ZM19 17.8755L20.4142 19.2897L21.8284 17.8755L20.4142 16.4613L19 17.8755ZM14.2656 12.8178C15.4936 11.2704 16.2694 9.28765 16.2694 7.13469H12.2694C12.2694 8.31643 11.8431 9.43569 11.1324 10.3312L14.2656 12.8178ZM16.2694 7.12484C16.2446 2.10124 12.1839 -2 7.13469 -2V2C9.95691 2 12.2554 4.29672 12.2694 7.14455L16.2694 7.12484ZM7.13469 -2C2.09441 -2 -2 2.09441 -2 7.13469H2C2 4.30355 4.30355 2 7.13469 2V-2ZM-2 7.13469C-2 12.175 2.09441 16.2694 7.13469 16.2694V12.2694C4.30355 12.2694 2 9.96584 2 7.13469H-2ZM7.13469 16.2694C9.29536 16.2694 11.2679 15.5204 12.8329 14.2535L10.3161 11.1445C9.43823 11.8551 8.34749 12.2694 7.13469 12.2694V16.2694ZM10.1603 14.1132L16.4613 20.4142L19.2897 17.5858L12.9887 11.2848L10.1603 14.1132ZM19.2897 20.4142L20.4142 19.2897L17.5858 16.4613L16.4613 17.5858L19.2897 20.4142ZM20.4142 16.4613L14.1132 10.1603L11.2848 12.9887L17.5858 19.2897L20.4142 16.4613ZM7.13469 10.6796C5.18054 10.6796 3.5898 9.07855 3.5898 7.13469H-0.410204C-0.410204 11.2786 2.96231 14.6796 7.13469 14.6796V10.6796ZM3.5898 7.13469C3.5898 5.19083 5.18054 3.5898 7.13469 3.5898V-0.410204C2.96231 -0.410204 -0.410204 2.9908 -0.410204 7.13469H3.5898ZM7.13469 3.5898C9.09339 3.5898 10.6796 5.176 10.6796 7.13469H14.6796C14.6796 2.96686 11.3025 -0.410204 7.13469 -0.410204V3.5898ZM10.6796 7.13469C10.6796 9.08884 9.07855 10.6796 7.13469 10.6796V14.6796C11.2786 14.6796 14.6796 11.3071 14.6796 7.13469H10.6796Z" fill="#123A6B" mask="url(#path-1-inside-1_359_418)"/>
</svg>
