<svg xmlns="http://www.w3.org/2000/svg" width="137.557" height="25.016" viewBox="0 0 137.557 25.016">
  <g id="Share" transform="translate(-1329.961 -4082)">
    <path id="Icon_awesome-twitter-square" data-name="Icon awesome-twitter-square" d="M22.335,2.25H2.68A2.681,2.681,0,0,0,0,4.93V24.585a2.681,2.681,0,0,0,2.68,2.68H22.335a2.681,2.681,0,0,0,2.68-2.68V4.93A2.681,2.681,0,0,0,22.335,2.25Z" transform="translate(1442.502 4079.75)" fill="#20407c"/>
    <path id="Icon_awesome-twitter-square-2" data-name="Icon awesome-twitter-square" d="M22.335,2.25H2.68A2.681,2.681,0,0,0,0,4.93V24.585a2.681,2.681,0,0,0,2.68,2.68H22.335a2.681,2.681,0,0,0,2.68-2.68V4.93A2.681,2.681,0,0,0,22.335,2.25ZM19.6,11.117c.011.156.011.318.011.475A10.348,10.348,0,0,1,9.2,22.011,10.371,10.371,0,0,1,3.574,20.37a7.715,7.715,0,0,0,.882.045A7.342,7.342,0,0,0,9,18.851,3.667,3.667,0,0,1,5.578,16.31a3.947,3.947,0,0,0,1.653-.067,3.662,3.662,0,0,1-2.932-3.6V12.6a3.66,3.66,0,0,0,1.653.463,3.654,3.654,0,0,1-1.63-3.049,3.616,3.616,0,0,1,.5-1.848A10.4,10.4,0,0,0,12.368,12a3.67,3.67,0,0,1,6.248-3.345,7.176,7.176,0,0,0,2.323-.882,3.653,3.653,0,0,1-1.608,2.016,7.288,7.288,0,0,0,2.111-.57A7.708,7.708,0,0,1,19.6,11.117Z" transform="translate(1404.996 4079.75)" fill="#20407c"/>
    <path id="Icon_awesome-facebook-square" data-name="Icon awesome-facebook-square" d="M22.335,2.25H2.68A2.68,2.68,0,0,0,0,4.93V24.585a2.68,2.68,0,0,0,2.68,2.68h7.664v-8.5H6.826v-4h3.518V11.707c0-3.47,2.066-5.387,5.23-5.387a21.312,21.312,0,0,1,3.1.27V10H16.929a2,2,0,0,0-2.257,2.163v2.6h3.841l-.614,4H14.672v8.5h7.664a2.68,2.68,0,0,0,2.68-2.68V4.93a2.68,2.68,0,0,0-2.68-2.68Z" transform="translate(1367.479 4079.75)" fill="#20407c"/>
    <path id="Icon_awesome-linkedin" data-name="Icon awesome-linkedin" d="M23.229,2.25H1.781A1.8,1.8,0,0,0,0,4.054V25.462a1.8,1.8,0,0,0,1.781,1.8H23.229a1.8,1.8,0,0,0,1.787-1.8V4.054A1.8,1.8,0,0,0,23.229,2.25ZM7.561,23.692H3.853V11.754H7.566V23.692ZM5.707,10.123a2.15,2.15,0,1,1,2.15-2.15A2.151,2.151,0,0,1,5.707,10.123ZM21.459,23.692H17.751V17.885c0-1.385-.028-3.166-1.926-3.166-1.932,0-2.228,1.508-2.228,3.066v5.908H9.889V11.754h3.557v1.63h.05a3.905,3.905,0,0,1,3.512-1.926c3.752,0,4.45,2.474,4.45,5.69Z" transform="translate(1329.961 4079.75)" fill="#20407c"/>
    <path id="Icon_ionic-md-share" data-name="Icon ionic-md-share" d="M15.683,13.6a2.038,2.038,0,0,0-1.459.559L8.876,11.066a2.505,2.505,0,0,0,.075-.522,2.5,2.5,0,0,0-.075-.522L14.15,6.968a2.238,2.238,0,1,0-.711-1.639,2.49,2.49,0,0,0,.075.522L8.24,8.9a2.251,2.251,0,0,0-1.534-.6A2.214,2.214,0,0,0,4.5,10.544a2.252,2.252,0,0,0,3.778,1.639l5.311,3.092a1.869,1.869,0,0,0-.075.484,2.169,2.169,0,1,0,2.169-2.16Z" transform="translate(1443.796 4084.001)" fill="#fff"/>
  </g>
</svg>
