<svg xmlns="http://www.w3.org/2000/svg" width="91" height="91" viewBox="0 0 91 91">
  <g id="Icon_Button" data-name="Icon Button" transform="translate(-510 -1587)">
    <g id="Icon" transform="translate(510 1587)" fill="#fff" stroke="rgba(34,66,122,0.8)" stroke-width="2">
      <circle cx="45.5" cy="45.5" r="45.5" stroke="none"/>
      <circle cx="45.5" cy="45.5" r="44.5" fill="none"/>
    </g>
    <g id="S_P_Icons_2023_AS_Furniture" data-name="S&amp;P Icons 2023_AS_Furniture" transform="translate(508.968 1587.938)">
      <path id="Path_112" data-name="Path 112" d="M28.081,52.462a2.721,2.721,0,1,1,0-5.442" transform="translate(0 -7.644)" fill="none" stroke="#1d1d33" stroke-linecap="round" stroke-linejoin="round" stroke-width="2"/>
      <line id="Line_45" data-name="Line 45" y2="13.617" transform="translate(28.081 44.818)" fill="none" stroke="#1d1d33" stroke-linecap="round" stroke-linejoin="round" stroke-width="2"/>
      <path id="Path_113" data-name="Path 113" d="M29.99,79.45a2.719,2.719,0,0,0,2.721,2.721" transform="translate(-1.909 -21.015)" fill="none" stroke="#1d1d33" stroke-linecap="round" stroke-linejoin="round" stroke-width="2"/>
      <path id="Path_114" data-name="Path 114" d="M39.661,49.741A2.719,2.719,0,0,0,36.94,47.02" transform="translate(-4.774 -7.644)" fill="none" stroke="#1d1d33" stroke-linecap="round" stroke-linejoin="round" stroke-width="2"/>
      <line id="Line_46" data-name="Line 46" x2="4.085" transform="translate(28.081 39.376)" fill="none" stroke="#1d1d33" stroke-linecap="round" stroke-linejoin="round" stroke-width="2"/>
      <line id="Line_47" data-name="Line 47" y2="12.254" transform="translate(34.887 42.097)" fill="none" stroke="#1d1d33" stroke-linecap="round" stroke-linejoin="round" stroke-width="2"/>
      <line id="Line_48" data-name="Line 48" x2="29.955" transform="translate(30.802 61.156)" fill="none" stroke="#1d1d33" stroke-linecap="round" stroke-linejoin="round" stroke-width="2"/>
      <path id="Path_115" data-name="Path 115" d="M88.311,79.45a2.719,2.719,0,0,1-2.721,2.721" transform="translate(-24.832 -21.015)" fill="none" stroke="#1d1d33" stroke-linecap="round" stroke-linejoin="round" stroke-width="2"/>
      <line id="Line_49" data-name="Line 49" y2="13.617" transform="translate(63.479 44.818)" fill="none" stroke="#1d1d33" stroke-linecap="round" stroke-linejoin="round" stroke-width="2"/>
      <path id="Path_116" data-name="Path 116" d="M92.951,51.65a2.719,2.719,0,0,1-2.721,2.721" transform="translate(-26.745 -9.553)" fill="none" stroke="#1d1d33" stroke-linecap="round" stroke-linejoin="round" stroke-width="2"/>
      <path id="Path_117" data-name="Path 117" d="M92.951,49.741A2.719,2.719,0,0,0,90.23,47.02" transform="translate(-26.745 -7.644)" fill="none" stroke="#1d1d33" stroke-miterlimit="10" stroke-width="2"/>
      <path id="Path_118" data-name="Path 118" d="M78.64,49.741a2.719,2.719,0,0,1,2.721-2.721" transform="translate(-21.967 -7.644)" fill="none" stroke="#1d1d33" stroke-linecap="round" stroke-linejoin="round" stroke-width="2"/>
      <line id="Line_50" data-name="Line 50" y1="12.254" transform="translate(56.673 42.097)" fill="none" stroke="#1d1d33" stroke-linecap="round" stroke-linejoin="round" stroke-width="2"/>
      <line id="Line_51" data-name="Line 51" x1="4.085" transform="translate(59.394 39.376)" fill="none" stroke="#1d1d33" stroke-miterlimit="10" stroke-width="2"/>
      <line id="Line_52" data-name="Line 52" x2="21.786" transform="translate(34.887 54.351)" fill="none" stroke="#1d1d33" stroke-linecap="round" stroke-linejoin="round" stroke-width="2"/>
      <line id="Line_53" data-name="Line 53" x2="21.786" transform="translate(34.887 48.903)" fill="none" stroke="#1d1d33" stroke-miterlimit="10" stroke-width="2"/>
      <line id="Line_54" data-name="Line 54" y1="5.448" transform="translate(30.802 33.928)" fill="none" stroke="#1d1d33" stroke-miterlimit="10" stroke-width="2"/>
      <line id="Line_55" data-name="Line 55" y1="5.448" transform="translate(60.758 33.928)" fill="none" stroke="#1d1d33" stroke-miterlimit="10" stroke-width="2"/>
      <line id="Line_56" data-name="Line 56" x2="19.059" transform="translate(36.25 28.48)" fill="none" stroke="#1d1d33" stroke-miterlimit="10" stroke-width="2"/>
      <line id="Line_57" data-name="Line 57" y1="2.727" transform="translate(30.802 61.156)" fill="none" stroke="#1d1d33" stroke-miterlimit="10" stroke-width="2"/>
      <line id="Line_58" data-name="Line 58" y1="2.727" transform="translate(60.758 61.156)" fill="none" stroke="#1d1d33" stroke-miterlimit="10" stroke-width="2"/>
      <path id="Path_119" data-name="Path 119" d="M34.62,33.928a5.444,5.444,0,0,1,5.448-5.448" transform="translate(-3.818 0)" fill="none" stroke="#1d1d33" stroke-miterlimit="10" stroke-width="2"/>
      <path id="Path_120" data-name="Path 120" d="M81.768,33.928A5.444,5.444,0,0,0,76.32,28.48" transform="translate(-21.01 0)" fill="none" stroke="#1d1d33" stroke-miterlimit="10" stroke-width="2"/>
    </g>
  </g>
</svg>
