<svg xmlns="http://www.w3.org/2000/svg" width="91" height="91" viewBox="0 0 91 91">
  <g id="Icon_Button" data-name="Icon Button" transform="translate(-510 -1587)">
    <g id="Icon" transform="translate(510 1587)" fill="#fff" stroke="rgba(34,66,122,0.8)" stroke-width="2">
      <circle cx="45.5" cy="45.5" r="45.5" stroke="none"/>
      <circle cx="45.5" cy="45.5" r="44.5" fill="none"/>
    </g>
    <g id="S_P_Icons_2023_AS_Bathroom_and_toilet" data-name="S&amp;P Icons 2023_AS_Bathroom and toilet" transform="translate(506.585 1585.907)">
      <path id="Path_142" data-name="Path 142" d="M82.71,64.466A6.642,6.642,0,0,0,83.875,62.6" transform="translate(-17.919 -13.077)" fill="none" stroke="#1d1d33" stroke-miterlimit="10" stroke-width="2"/>
      <path id="Path_143" data-name="Path 143" d="M69.35,69.8a8.708,8.708,0,0,0,6.114-1.106" transform="translate(-13.305 -15.18)" fill="none" stroke="#1d1d33" stroke-miterlimit="10" stroke-width="2"/>
      <path id="Path_144" data-name="Path 144" d="M35.1,28.35V43.635a3.056,3.056,0,0,0,3.057,3.057H71.784v1.021c0,7.476-7.476,12.228-13.249,12.228a16.741,16.741,0,0,1-8.15-2.036" transform="translate(-1.475 -1.247)" fill="none" stroke="#1d1d33" stroke-miterlimit="10" stroke-width="2"/>
      <line id="Line_66" data-name="Line 66" y1="16.306" transform="translate(48.91 27.103)" fill="none" stroke="#1d1d33" stroke-miterlimit="10" stroke-width="2"/>
      <path id="Path_145" data-name="Path 145" d="M61.761,69.623v2.213a2.036,2.036,0,0,0,.6,1.44l2.586,2.586a3.047,3.047,0,0,1,.9,2.16v1.794H44.44v-8.15l3.482-3.482a2.047,2.047,0,0,0,.6-1.44V65.374a2.036,2.036,0,0,0-.6-1.44l-2.586-2.586a3.047,3.047,0,0,1-.9-2.16V56.38" transform="translate(-4.701 -10.928)" fill="none" stroke="#1d1d33" stroke-miterlimit="10" stroke-width="2"/>
      <line id="Line_67" data-name="Line 67" x2="8.15" transform="translate(31.589 60.73)" fill="none" stroke="#1d1d33" stroke-miterlimit="10" stroke-width="2"/>
      <line id="Line_68" data-name="Line 68" x1="8.15" transform="translate(31.589 66.844)" fill="none" stroke="#1d1d33" stroke-miterlimit="10" stroke-width="2"/>
      <line id="Line_69" data-name="Line 69" x2="20.319" transform="translate(30.83 24.74)" fill="none" stroke="#1d1d33" stroke-miterlimit="10" stroke-width="2"/>
    </g>
  </g>
</svg>
