<svg xmlns="http://www.w3.org/2000/svg" width="20.01" height="20.01" viewBox="0 0 20.01 20.01">
  <path id="Icon_awesome-twitter-square" data-name="Icon awesome-twitter-square" d="M17.866,2.25H2.144A2.144,2.144,0,0,0,0,4.394V20.116A2.144,2.144,0,0,0,2.144,22.26H17.866a2.144,2.144,0,0,0,2.144-2.144V4.394A2.144,2.144,0,0,0,17.866,2.25ZM15.682,9.343c.009.125.009.255.009.38a8.278,8.278,0,0,1-8.334,8.334,8.3,8.3,0,0,1-4.5-1.313,6.171,6.171,0,0,0,.706.036A5.873,5.873,0,0,0,7.2,15.529,2.933,2.933,0,0,1,4.462,13.5a3.157,3.157,0,0,0,1.322-.054,2.93,2.93,0,0,1-2.345-2.876v-.036a2.927,2.927,0,0,0,1.322.371,2.923,2.923,0,0,1-1.3-2.439,2.893,2.893,0,0,1,.4-1.478,8.318,8.318,0,0,0,6.039,3.064,2.936,2.936,0,0,1,5-2.675,5.74,5.74,0,0,0,1.858-.706A2.922,2.922,0,0,1,15.463,8.28a5.829,5.829,0,0,0,1.688-.456A6.166,6.166,0,0,1,15.682,9.343Z" transform="translate(0 -2.25)" fill="#fff"/>
</svg>
