<svg xmlns="http://www.w3.org/2000/svg" width="91" height="91" viewBox="0 0 91 91">
  <g id="Icon_Button" data-name="Icon Button" transform="translate(-510 -1587)">
    <g id="Icon" transform="translate(510 1587)" fill="#fff" stroke="rgba(34,66,122,0.8)" stroke-width="2">
      <circle cx="45.5" cy="45.5" r="45.5" stroke="none"/>
      <circle cx="45.5" cy="45.5" r="44.5" fill="none"/>
    </g>
    <g id="S_P_Icons_2023_AS_Water_and_leaks" data-name="S&amp;P Icons 2023_AS_Water and leaks" transform="translate(505.517 1585.489)">
      <line id="Line_8" data-name="Line 8" x1="38.384" transform="translate(30.791 30.238)" fill="none" stroke="#1d1d33" stroke-miterlimit="10" stroke-width="2"/>
      <line id="Line_9" data-name="Line 9" y1="0.041" x2="38.384" transform="translate(30.791 49.434)" fill="none" stroke="#1d1d33" stroke-miterlimit="10" stroke-width="2"/>
      <rect id="Rectangle_41" data-name="Rectangle 41" width="5.331" height="23.459" transform="translate(74.506 51.569) rotate(180)" fill="none" stroke="#1d1d33" stroke-miterlimit="10" stroke-width="2"/>
      <rect id="Rectangle_42" data-name="Rectangle 42" width="5.331" height="23.459" transform="translate(30.791 51.569) rotate(180)" fill="none" stroke="#1d1d33" stroke-miterlimit="10" stroke-width="2"/>
      <path id="Path_93" data-name="Path 93" d="M60.105,53.3V50.141l-2.135-3.2,2.135-4.263,5.331-2.142" transform="translate(-10.119 -3.869)" fill="none" stroke="#1d1d33" stroke-miterlimit="10" stroke-width="2"/>
      <line id="Line_10" data-name="Line 10" x2="3.203" y2="3.203" transform="translate(46.784 35.61)" fill="none" stroke="#1d1d33" stroke-miterlimit="10" stroke-width="2"/>
      <line id="Line_11" data-name="Line 11" x2="2.135" y2="1.068" transform="translate(45.716 42.009)" fill="none" stroke="#1d1d33" stroke-miterlimit="10" stroke-width="2"/>
      <path id="Path_94" data-name="Path 94" d="M59.626,65.26c-.475,2.714-3.2,4.429-3.2,7.232a3.2,3.2,0,1,0,6.392,0C62.822,69.682,60.094,67.967,59.626,65.26Z" transform="translate(-9.639 -11.563)" fill="none" stroke="#1d1d33" stroke-linejoin="bevel" stroke-width="2"/>
      <path id="Path_95" data-name="Path 95" d="M68.906,82.29c-.475,2.438-3.2,3.981-3.2,6.509a3.2,3.2,0,0,0,6.392,0C72.1,86.271,69.374,84.728,68.906,82.29Z" transform="translate(-12.528 -16.864)" fill="none" stroke="#1d1d33" stroke-linejoin="bevel" stroke-width="2"/>
      <path id="Path_96" data-name="Path 96" d="M49.8,80.74c-.393,2.17-2.665,3.54-2.665,5.785a2.667,2.667,0,1,0,5.331,0C52.461,84.28,50.188,82.9,49.8,80.74Z" transform="translate(-6.745 -16.381)" fill="none" stroke="#1d1d33" stroke-linejoin="bevel" stroke-width="2"/>
    </g>
  </g>
</svg>
