<svg xmlns="http://www.w3.org/2000/svg" width="20.01" height="20.01" viewBox="0 0 20.01 20.01">
  <path id="Icon_awesome-youtube-square" data-name="Icon awesome-youtube-square" d="M8.343,9.847,12.6,12.264,8.343,14.68ZM20.01,4.394V20.116a2.144,2.144,0,0,1-2.144,2.144H2.144A2.144,2.144,0,0,1,0,20.116V4.394A2.144,2.144,0,0,1,2.144,2.25H17.866A2.144,2.144,0,0,1,20.01,4.394Zm-1.876,7.874a21.462,21.462,0,0,0-.339-3.939,2.039,2.039,0,0,0-1.438-1.447A47.963,47.963,0,0,0,10,6.538a47.962,47.962,0,0,0-6.351.344A2.039,2.039,0,0,0,2.215,8.329a21.435,21.435,0,0,0-.339,3.939,21.462,21.462,0,0,0,.339,3.939,2.009,2.009,0,0,0,1.438,1.425A48.587,48.587,0,0,0,10,17.972a47.962,47.962,0,0,0,6.351-.344A2.009,2.009,0,0,0,17.794,16.2a21.4,21.4,0,0,0,.339-3.935Z" transform="translate(0 -2.25)" fill="#fff"/>
</svg>
