<svg xmlns="http://www.w3.org/2000/svg" width="25.016" height="25.016" viewBox="0 0 25.016 25.016">
  <g id="shareicon" transform="translate(-1442.502 -4082)">
    <path id="Icon_awesome-twitter-square" data-name="Icon awesome-twitter-square" d="M22.335,2.25H2.68A2.681,2.681,0,0,0,0,4.93V24.585a2.681,2.681,0,0,0,2.68,2.68H22.335a2.681,2.681,0,0,0,2.68-2.68V4.93A2.681,2.681,0,0,0,22.335,2.25Z" transform="translate(1442.502 4079.75)" fill="#20407c"/>
    <path id="Icon_ionic-md-share" data-name="Icon ionic-md-share" d="M15.683,13.6a2.038,2.038,0,0,0-1.459.559L8.876,11.066a2.505,2.505,0,0,0,.075-.522,2.5,2.5,0,0,0-.075-.522L14.15,6.968a2.238,2.238,0,1,0-.711-1.639,2.49,2.49,0,0,0,.075.522L8.24,8.9a2.251,2.251,0,0,0-1.534-.6A2.214,2.214,0,0,0,4.5,10.544a2.252,2.252,0,0,0,3.778,1.639l5.311,3.092a1.869,1.869,0,0,0-.075.484,2.169,2.169,0,1,0,2.169-2.16Z" transform="translate(1443.796 4084)" fill="#fff"/>
  </g>
</svg>
